/* XPM */
static char *_ce769ae266f4aca9f2a8cbb47c293a4j5hcbp0fJ3wXPz7x[] = {
/* columns rows colors chars-per-pixel */
"64 64 220 2 ",
"   c #020202",
".  c #0C0C0C",
"X  c #141414",
"o  c #191617",
"O  c #1B1B1B",
"+  c #191818",
"@  c #0E100F",
"#  c #201E1F",
"$  c #211F20",
"%  c #1F2120",
"&  c #242424",
"*  c #242B26",
"=  c #2A2B26",
"-  c #2B2B2C",
";  c #292A29",
":  c #302729",
">  c #233129",
",  c #33332E",
"<  c #343434",
"1  c #3B3C3C",
"2  c #3E3337",
"3  c #2F2D31",
"4  c #493836",
"5  c #6C2B31",
"6  c #36403F",
"7  c #5B493D",
"8  c #3D3E40",
"9  c #403E41",
"0  c #733C41",
"q  c #3E4241",
"w  c #434343",
"e  c #4C4C4C",
"r  c #444948",
"t  c #5A4649",
"y  c #51524D",
"u  c #535353",
"i  c #5C5C5C",
"p  c #565759",
"a  c #4C5154",
"s  c #65595B",
"d  c #774D4C",
"f  c #5C615D",
"g  c #63625D",
"h  c #68665C",
"j  c #565960",
"k  c #655F63",
"l  c #5C6365",
"z  c #636363",
"x  c #646964",
"c  c #666D6A",
"v  c #6C6C6C",
"b  c #6A6668",
"n  c #716B6A",
"m  c #6C716D",
"M  c #75726E",
"N  c #6C6D71",
"B  c #736F70",
"V  c #6C7474",
"C  c #747474",
"Z  c #7B7B7B",
"A  c #787879",
"S  c #951E1A",
"D  c #B31412",
"F  c #97201C",
"G  c #B61525",
"H  c #9B2C2D",
"J  c #8B2E2A",
"K  c #AE2E30",
"L  c #DB0A09",
"P  c #DA0C13",
"I  c #C41518",
"U  c #D3141A",
"Y  c #CF100D",
"T  c #E7060A",
"R  c #F20203",
"E  c #F90607",
"W  c #E60C11",
"Q  c #F1101A",
"!  c #C11926",
"~  c #C9292D",
"^  c #86494A",
"/  c #9A5957",
"(  c #82514A",
")  c #BB4246",
"_  c #AE4950",
"`  c #837B7D",
"'  c #807476",
"]  c #807D6E",
"[  c #AA6F6F",
"{  c #CE544F",
"}  c #E44349",
"|  c #E4655F",
" . c #E75B64",
".. c #FA7B78",
"X. c #FA746C",
"o. c #C96A64",
"O. c #84837D",
"+. c #D08278",
"@. c #7E7980",
"#. c #877F85",
"$. c #DE7D86",
"%. c #F07B84",
"&. c #7E8685",
"*. c #838384",
"=. c #868B8B",
"-. c #8B8C8C",
";. c #898788",
":. c #928D8D",
">. c #958984",
",. c #8A928E",
"<. c #86908B",
"1. c #8D8C91",
"2. c #8D8F9B",
"3. c #948C92",
"4. c #978E97",
"5. c #8E9190",
"6. c #8F9299",
"7. c #949494",
"8. c #969B96",
"9. c #969B9A",
"0. c #9C9B9B",
"q. c #989799",
"w. c #B88C92",
"e. c #A8999A",
"r. c #AD908E",
"t. c #99A399",
"y. c #A0A19B",
"u. c #9B9CA1",
"i. c #A39BA1",
"p. c #9CA6A5",
"a. c #A3A3A3",
"s. c #AAA5AB",
"d. c #A6AAAB",
"f. c #ABABAB",
"g. c #A4A9A7",
"h. c #B4A7AD",
"j. c #AAB4AC",
"k. c #B4B4AB",
"l. c #B7ACB3",
"z. c #ADB2B3",
"x. c #ADB2B8",
"c. c #B4B4B4",
"v. c #BDB6BB",
"b. c #BCBBBC",
"n. c #B5B7B9",
"m. c #D98786",
"M. c #C79A99",
"N. c #DB9796",
"B. c #E78A89",
"V. c #F09293",
"C. c #CDA59B",
"Z. c #FFA499",
"A. c #CD9BA4",
"S. c #CBA5A7",
"D. c #CFB1A8",
"F. c #D6B5AF",
"G. c #C1BCBD",
"H. c #D8B7B7",
"J. c #FCBAB2",
"K. c #F1B0AA",
"L. c #BCC3BD",
"P. c #CAC0B7",
"I. c #C4BDC3",
"U. c #D0B1C0",
"Y. c #BCC4C4",
"T. c #C7C7C7",
"R. c #C4C4C4",
"E. c #C5C9C6",
"W. c #C5C7CA",
"Q. c #CBCBCB",
"!. c #C9CAC8",
"~. c #D3CDCE",
"^. c #D8CFC8",
"/. c #CCD1CD",
"(. c #D5CDD4",
"). c #CED2D2",
"_. c #D1D1D1",
"`. c #D4D4D4",
"'. c #D9D3D5",
"]. c #D5D9D4",
"[. c #D5DDDA",
"{. c #DCDCDC",
"}. c #DAD6D9",
"|. c #D0D0CF",
" X c #F8C8C6",
".X c #FAD4C9",
"XX c #E2DDDD",
"oX c #E7D7D6",
"OX c #EACBCB",
"+X c #DCE3DD",
"@X c #D6E4D7",
"#X c #E2E4DD",
"$X c #E9E2DC",
"%X c #FFE4DA",
"&X c #DDD5E2",
"*X c #E3DEE1",
"=X c #EADDE4",
"-X c #DEE2E0",
";X c #DFEAE6",
":X c #E5E5E5",
">X c #E3E3E3",
",X c #EAE4E6",
"<X c #ECE5E9",
"1X c #EAEAEA",
"2X c #EEEEEE",
"3X c #ECECEC",
"4X c #E6EAE6",
"5X c #F2EDEC",
"6X c #FCEBE5",
"7X c #EBF2E9",
"8X c #F9F2EC",
"9X c #F4EFF2",
"0X c #FCECF3",
"qX c #F3F3F3",
"wX c #FDF3F5",
"eX c #FCF6FB",
"rX c #FEFEFE",
"tX c #FDFDFD",
"yX c #F7F8F9",
"uX c #ECE4F1",
/* pixels */
"                                                                                                                    .   .       ",
". X . X . . @ X X X X X . . . . X X X X X X X X X X X X X X X X X X X X X X X X X + + + X X + X + + + + o o + o O O + X X X @ . ",
". X . X . X X @ . . . . . . . X @ X @ @ . X X @ X X X X X X X X . X X X X X X X X X X X X X X X X X X X o o o X X X @ X O O X   ",
". + + - - - - - - < < < < < < < < 3 , < < - 3 < - < - < < < < < < < - < < < < < < < < < < < < < < < < < < < 1 2 6 1 1 1 1 - o   ",
". + + < < 1 < < < < < < < < < < < < < < < < < < < < < < 1 < < < < < < 1 < 1 1 1 1 1 1 1 1 1 1 1 1 1 1 1 1 1 1 1 < 2 < 1 1 < +   ",
"X & & q 1 < 1 2 1 1 1 1 < 1 < 1 1 2 1 1 1 1 1 1 1 w 1 w 4 w w 9 q q 4 1 w 1 w 1 6 1 1 4 1 1 1 9 w q 9 w w w w r r r r w w 1 %   ",
". ; & e w w w r 9 w w w w w w w e w w w w r r e w w w w r w r r r e w e e w w e r w 6 1 1 9 r e e e r r e e e e e e e e r 7 %   ",
"@ - - u e e e e e e u e e e e u e e y e e e e e e u e u a a u y e a u u u u u e u a 4 2 < w e i u u u u e u u u p u u p a r &   ",
"X < < i u u e u u u i u u i p p p p p i u i u i i u i i u i i u i u i p i u p p i u 1 O < < i i i i u i z u i i k i i k l u &   ",
"& < < z s z z l i z z i i i i i i f k i i i l i u u u u u e y p e u u u e u p g g u r 1 u < y u u u u u u i i u u y p i z u -   ",
"+ 1 q C c z z z b b b x x b v v b b z x v v b z i z i e i u u u p i p p e i u b C i r 4 i < u v p u i i u u e p u u i i C b <   ",
"O 1 w C v i i z f i p i i i i i i i l f i z v C b z w u u u u u u u e u i v w B A b e 8 c 2 z C r i e e u u u u u f z u Z b <   ",
"O w w Z C s q < w q 4 r e e e u e u e 4 u C *.Z c z v `.>X1X1XqXwXyXrXrXqX`.r C &.N p w C 1 x B Z wXrXrXrXrXrXrXrX}.;.e 7.Z 1   ",
"& e e -.&.i & - 3 < 1 w r e e u y r e e C -.:.Z C b b `.Q.Q.Q.`.'.#X>X1X1XQ.< Z :.A i r Z 1 v Z A rXqX2X3X3X3X:X>X/.#.w 7.C < . ",
"* u u 7.*.b < b 7.a.n.T.{.2XeXtXqX1X1X[.Q.a.7.=.C v x _.R.Q.`.`.}.>X{.>X{.R.1 ;.7.Z z a ;.w M Z C rX3X2X1X:X4X1X+XQ.Z u a.;.1   ",
"- u u e.:.v * c 3.a.n.T.{.5XyXyXqX:X1X}._.f.a.q.*.C b _.Q.Q._._.].-X{.1X>XR.w =.0.*.v y *.w Z *.Z rXqX2X:X2X:XXX>XW.O.i a.=.r   ",
"* p i s.4.A - x :.a.b.W.}.<XrXyXqX3X-X{.}.n.g.i.-.C z `.T.Q.Q.`.}.{.>X>X-XP.e 7.g.-.b i 7.e *.*.A rX2X2X1X3X4X:X#XW.*.p c.:.w   ",
"* i k c.0.#.3 c 5.i.k.R.oX0XeXqXqX2X>X{.}.b.c.g.:.A x _.T.T.).`.}.{.-X>X>XR.e q.f.7.B i q.e ;.;.A rX2X2X1X1X:X:X*XT.;.i b.q.r . ",
"- g z b.g.@.3 c 6.p.c.!.6XwXwXtX2X3X:X-X{.Q.R.f.q.Z b _.T.T./.}.}.{.>X>X-XR.u a.b.e.Z x a.u ,.-.A rX2X2X1X1X:X:X>XT.=.l R.a.e   ",
", x c Y.d.;.; N 2.g.k..Xm.B. X0XqX1X-X-X#X`.T.n.i.&.z _.T.Q.Q.`.}.+X*X>X-XR.p d.Y.a.Z x s.u 7.-.Z rXqX2X1X1X:X,X>XT.:.b _.d.y . ",
", m V Q.n.-.: n 4.s.D.J.~ ~ N..X8X3X>X{.:X{.|.b.s.O.x _.W.Q.|.`.}.{.-X4X*XR.i f.Q.d.*.b j.i 0.3.Z tXqX2X3X3X:X>X>XT.7.v '.k.u   ",
"< V V `.L.8.: b 1.e.J. .L P { F.6XqX:X{.3X:X{.Q.z.*.z ~.Q.Q.Q.`.}.{.>X:X-XR.i b.).c.-.B b.i g.7.A rX2X2X1X1X4X>X>XT.7.C #Xn.i . ",
"< ' ` #X!.t.; v 3.A.Z.I W L D B.OX,X,X{.qXqX:X`.b.;.z _.T.Q./.`.}.{.>X:X>XR.z R.}.b.:.C R.z f.0.Z rX2X2X1X1X>X1X*XT.7.C 2Xb.i   ",
"4 #.*.1X/.t.> l ;.F.) I U Y G _ S.-X,X{.yXrX2X}.Y.-.b |.T.Q.~.'.}.{.>X:X+XR.z !.>XR.8.A R.b c.u.Z rX2X2X1X3X1X>X>XR.q.A qXR.z . ",
"1 Z #.eX{.g.> x >.C.[ K H H J ^ >.c.,X*XeXrXwX-XT.-.b _.R.Q.Q._.{.].>X1X>XR.v /.2X~.8.A _.v b.9.Z rX2X2X:X3X:X:X>XR.0.*.eX/.i . ",
"8 &.;.eX*Xc.* x >.r.d 5 5 0 t t t s.XX}.rXtXrX1X).=.z _.T.T.Q._.`.{.>X{.`.T.v `.qX_.7.Z [.v b.0.C rX1X1X2X:X:X>X{.T.0.Z rX}.z   ",
"w -.3.eXuXv.- b ,.0.e.h.U.OX=X<XXX,X<X{.rXyXrXyX{.-.x c.d.f.f.f.z.b.b.b.R.R.v {.tX{.7.A XXB L.e.*.{.Q.R.T.R.R.b.b.b.0.,.rX{.f . ",
"r 7.q.rX9XI.3 z ,.0.v.T.}.uXeXyXeX<X<XXXtXrXrXyX+Xg.7.5.A ;.#.7.-.,.-.3.8.q.B {.rX#Xq.A :XC Q.c.g.a.q.7.-.7.7.5.7.7.*.-.yX:Xz   ",
"w 7.q.rXqXI.3 b 1.0.j.R.].4XtXtX5X5X,XXXqXrXrXrX2X+X*.C v i B s i b b x f v -.9XyX{.7.Z >XC `.{.*.z x z b z z z x i B b.rX}.u X ",
"r ,.7.rX3Xn.- z -.h.F. X.X%X6XwX0XeXXX*XrXtXtXqXqXrXrXrXrXrXtXrXrXrXyXrXrXrXtXrXyX'.7.Z `.b '.rXrXrXtXrXrXyXrXrXrXrXrXrXyX`.i . ",
"r ,.7.tX#Xk.= z 4.S.$.X.X.+.+.V. XXX<XXXwXrXrX-X{.-X+X{.>X>X{.>X{.{.>X>X}.XX{.{.}.T.8.Z Q.B Q.1X'.>X{.}.*X}.{.*X{.{.}.{.|.R.i . ",
"a ,.3.wX#Xj.> x :.A.{ G L L Q K w.B ~.=XrXrXqX!.z.g.g.g.g.s.g.a.d.g.a.d.a.d.g.f.g.d.-.A /.A c.f.d.0.d.a.y.s.g.t.i.g.s.a.a.t.u . ",
"u 4.O.8X@Xp.> l :.w.+.G L L D _ t -.XX,XwXyXqXY.p.q 8 8 9 1 w 9 7 8 4 q q w q 9 6 1 w Z T.:.e w 7 q q 8 7 1 8 q 8 w 7 < p &.i . ",
"u :.O.7X].g.> b 3.e.M.o.I I S / s {.,XXX8XyX4XL.&.V Y.x.I.G.v.v.b.n.n.b.b.b.b.b.b.R.b.}.1X].b.b.n.b.b.b.G.b.n.b.b.n.G.b.d.l w . ",
"p 1.Z #XQ.a.- z 3.e.k.C.) S [ 4 h.yX#X>X9X5XXXc.9.V W.n.b.n.G.G.n.b.n.n.b.b.b.c.b.c.b.R.b.c.n.c.c.n.n.n.c.c.n.n.n.c.n.z.g.p e   ",
"j =.A {.T.q.: z 1.u.j.G.N./ d #.qX1X>X>X2X,XoXl.4.&.1.A @.Z Z Z A Z Z A C C Z Z Z A -.f.f.q.C A C C Z C A A A C Z C A C A w r @ ",
"j =.C `.Y.7.; x 1.a.x.I.H.>.9 &XwX<X3X}.1X-X|.v.h.n e p a e p r e u u u u y y y e u A Z n.u y u u e u u y y u u e u u e p i y @ ",
"s #.V ).L.,.= g =.u.x.I.`.P.&XeXwX9X:X-X:X}.Q.b.Q.~.(.Q././././.`._.Q._._._.Q.|.Q.b.` z e.i g.Q.Q.~.Q.Q.Q.Q.Q.Q._.Q.T.Q.Q.c.s . ",
"l #.N W.x.=.= g 3.u.d.Y.].#XyXtXwX2X+X;X-X).W.n.f.8.e.0.8.t.8.t.9.7.7.q.7.7.u.f.c.g.Z i d.e q.a.q.7.8.7.7.7.7.7.;.7.7.q.g.i.u . ",
"z @.N Y.d.*.= z *.u.c.G.OXoXwXtX9X7X;X[.{.Q.b.c.9.=.C v m c c m V v v C v B =.s.f.7.C z 8.e *.-.C B v v v N v N B B A 7.n.7.e . ",
"k *.l n.i.#.- g <.8.k.F..X%X%X8X8X7X7X@X*XI.l.h.7.&.7 y y y p y u u u i a B z 0.d.7.v i :.e *.*.e u u i u u i u u u Z B f.7.e . ",
"h *.l x.i.#.: z <.y.D. XX.K { Z.%X6X#X>X`.l.l.i.=.V l /.#X+X>X2X5XrXyXyXtX).y -.a.-.v p =.e Z *.Z qXrXrXtXyXyXtXrX{.,.a g.;.w @ ",
"h O.i d.e.' : g &.e.J.~ P W W I B. XoXXX}.h.h.u.=.c g ].!.!.^.'.{.}.XX>X4XW.4 =.0.*.x e *.r C #.C rXqX1XqX2X2X<X{.`.O.e f.*.w X ",
"n ` i p.:.M : k 1.M. .P T E E Q G $.H.oX`.s.u.6.*.m g /.L.!./.~.`._.1X1X}.R.w &.7.` z y Z w C Z Z rX3X3X1X>X:X>X>XQ.Z e 7.A r . ",
"v Z p u.;.n = k ,.M.! Q R R E T G _ +.$XW.u.u.=.A c x ^.E.W.W.`.[.XX>X-X}.T.1 A -.A i e A 7 c A C rXqXyX1X2X2X:X>XR.` y :.A w . ",
"V @.a 6.O.h : k =.M.} T E R R L G _ h $XR.q.2.&.V c x !.E.W.Q.`.`.{.{.:X>XR.1 C *.C p r V < b A Z rX2X1X1X2X>X:X{.T.*.e *.C 1 X ",
"V A y 1.] f ; k *.M.{ Y T R L D J ^ ] +XI.4.1.@.c x b ^.T./.|.`.}.}.{.4X`.b.1 C #.v u w c 1 f C C rXqX2X2X:X-X2X:XQ.C 6 ` v 1 . ",
"V A e O.m i & l ,.e.o.{ D Y D S / t t.-XI.#.#.A v f g '.L.W.Q.`.`.{.>X>X{.Q.< b A z e 1 b < i N Z tX2X3X1X1X2X>XXXT.Z w C z 1 @ ",
"@.C r #.v p ; z *.e.r.[ / ^ ^ d 4 Z ].+XG.*.A B z l v !.T.Q.Q._.].{.>X>X{.T.< z C i e 1 g < p v Z tXqX3X2X:X2X:X-XT.Z < C i 1 . ",
"N C 8 C b u & g -.7.h.c.7.k u n f.}.5X{.b.Z v v s p z _.R.T.Q.`._.}.{.>X{.b.< s v i w 1 i 3 u v Z rXqX1X3X1X:X1X>XT.Z < C u < X ",
"C A 1 v z e & b =.q.f.G.(.<XwXeX2XqX>X>Xb.v B z p i x _.T.R.Q.Q.`.{.>X>X>XR.- p z u w < p - e b C tXqX3X3X2X>X4X*XT.C - z e < X ",
"*.C < b i w < v e.f.T.'.,X0XeXwXrXtX9XqXc.z z p e p b Q.Q.W.`._.`.{.}.-X>Xb.; u i e 1 - y ; w x Z tX2XqX1X1X:X>X:XQ.C - i e < X ",
"*.N < z u e u V v B C C B b B A b B b N A v f a r u z T.T.T.Q._.`.{.>X>X{.Y.; e u w 1 ; r & 9 l Z rX5X2X1X1X3X,X{.R.v - u e - . ",
"*.v < p e e i f f i i i i z s p i i f i p i u a w u b _.T.Q.T._.`.}.{.-X{.R.& 1 e w < & w & 1 s C rX2X>X4X:X>X>X>XT.B - e w < X ",
"*.B , e w e u e u e e y e e e u u 9 r y r r q q 4 e z f.a.f.g.j.n.n.b.b.Y.v.* q w 1 3 & q % 1 p *.}./.Q.W.T.Y.b.R.c.v - w < - X ",
"=.B & r e 1 w w q w w 1 1 w w 1 1 w 9 8 q 4 7 q 1 q u z p p s i i i z z z C . 8 4 < - O < + ; e b C x v i b b z k x w O 1 < & X ",
"=.v & 1 1 2 1 1 1 1 1 1 1 1 1 < < 1 1 < 2 1 < 1 < - & O + + + X O X X O X O & < 1 3 & # 3 + - 3 O O O X o X X X X @ + - < - & X ",
"*.c O 1 < 3 < < 3 < < < , 3 > < < < < < < 3 3 < < < 3 < < < < < 1 < < < < < < 1 < ; % # ; X - < < < < < < < < < 1 < , 3 < ; & X ",
"7.v O < 3 , : 3 - - - 3 - - 3 > - - - ; ; ; ; - - - - - 3 - ; & ; ; ; - - & ; & & % O X + @ & ; ; & & ; ; & & & & - & & & # % X ",
"7.x X ; & ; & & & & & & * & & * ; & * * & & * & ; & $ & & ; & & & % # $ # & & O # O O O X @ % # % # # % # % # # O O & O & O % X ",
"7.z X % + $ # $ $ $ $ O # O % % + + O O + + O O O O O + X O O # O # O + O # O O # # O # o O & O O O O O + + + + O + o X X X O X ",
"7.l X X X o X X X X X X X X X X X X X X o X X X X X X X X @ @ @ @ @ X X @ @ @ @ @ @ @ X @ X @ @ @ @ @ . . @ @ @ @ @ . . @ X O X ",
"t.c O o # o X X o o o o X X X + + + o o o o X o X X X X X + o X X o X + X X X X o X o X + o X X o X X o o X X X X X X X o X + X ",
"=.p @   .   . . . . .   . . . .   . . .   . .   . . . . .   . . @     . . .   . .   .   @     @   .   . .   . . .   . . .   X @ "
};
