/* XPM */
static char *f7cef2736d714d14a47c5db202d712benrqYwR96JXc4KETj[] = {
/* columns rows colors chars-per-pixel */
"64 64 103 2 ",
"   c #090915",
".  c #0E0D1A",
"X  c #100F1F",
"o  c #12121D",
"O  c #0F0D21",
"+  c #110F24",
"@  c #141323",
"#  c #181727",
"$  c #1C1C24",
"%  c #151329",
"&  c #19172C",
"*  c #1C1C29",
"=  c #22222B",
"-  c #262533",
";  c #282735",
":  c #2A2936",
">  c #2E2D3C",
",  c #302F3D",
"<  c #2F3034",
"1  c #303136",
"2  c #35363B",
"3  c #37383C",
"4  c #393A3E",
"5  c #353443",
"6  c #383746",
"7  c #3C3D42",
"8  c #373648",
"9  c #3D3C4A",
"0  c #3F4044",
"q  c #414246",
"w  c #44454A",
"e  c #47484C",
"r  c #494A4E",
"t  c #444352",
"y  c #4C4D52",
"u  c #4D4D5B",
"i  c #4F5055",
"p  c #515256",
"a  c #54555A",
"s  c #57585C",
"d  c #595A5E",
"f  c #5C5D62",
"g  c #5E5D6A",
"h  c #5F6064",
"j  c #616266",
"k  c #646569",
"l  c #67686C",
"z  c #696A6E",
"x  c #6C6D71",
"c  c #6F7074",
"v  c #717276",
"b  c #74757A",
"n  c #77787C",
"m  c #797A7E",
"M  c #737280",
"N  c #7D7E82",
"B  c #7F7F8B",
"V  c #7F8084",
"C  c #818286",
"Z  c #848589",
"A  c #87888C",
"S  c #898A8E",
"D  c #8D8E92",
"F  c #8F9094",
"G  c #919296",
"H  c #95969A",
"J  c #97989C",
"K  c #999A9E",
"L  c #9C9DA1",
"P  c #9FA0A4",
"I  c #A1A2A6",
"U  c #A4A5A9",
"Y  c #A7A8AC",
"T  c #A9AAAE",
"R  c #ADAEB2",
"E  c #AFB0B4",
"W  c #B1B2B6",
"Q  c #B5B6BA",
"!  c #B7B8BC",
"~  c #B9BABE",
"^  c #BDBEC2",
"/  c #BFC0C4",
"(  c #C1C2C6",
")  c #C4C5C9",
"_  c #C7C8CC",
"`  c #C9CACE",
"'  c #CDCED2",
"]  c #CFD0D4",
"[  c #D1D2D6",
"{  c #D4D5D9",
"}  c #D7D8DC",
"|  c #D9DADE",
" . c #DCDDE1",
".. c #DFE0E4",
"X. c #E1E2E6",
"o. c #E4E5E9",
"O. c #E7E8EC",
"+. c #E9EAEE",
"@. c #ECEDF1",
"#. c #EFF0F4",
"$. c #F1F2F6",
"%. c #F4F5F9",
"&. c #F7F8FC",
/* pixels */
"7 b W Y W W ! Q ! W ! ! ! E N 7 0 v P P P T L F H L L P Y H l 7 0 V ! E Q W Q W W ! W W ! R N 6 3 V ! E ! E E ! E ! W Q W R b 0 ",
"C [ [ `  .| o. .X. .X.o.X. .R v v  .+.O.o.+.] } {  .O.O.O...! l V } +....... . ... ..... . .^ x S | .... . .................W b ",
"A ` Q T ^ ) ^ ( ^ ^ ^ ^ ^ ^ I c H  .^ / ^ / ^ T E Q ) / ! / T v K  .^ / ^ ^ ^ / ^ / ^ ^ ^ ^ P c H { / / ^ / / / / ^ / ! ^ ^ P z ",
"H ^ R Q ! ( ^ ^ ( / / ^ ^ ^ Y b P ` ^ / ^ ^ _ Y R ^ / / / / P M P { E / ! ^ / ^ / / ^ ^ / ^ P b P ] / ) ^ / ^ / / ^ / ! Q ^ Y c ",
"H ` Y W ! E ) / ^ ^ ^ / ^ ^ I x G [ / ! / / ) ! R ^ ) / ^ / P x H [ / / ! / / / _ ! ! / / / Y l K ] / ^ Q / / / ^ ^ / ^ E ^ P v ",
"K  .! Y W E ^ ) ^ ^ ^ ^ ^ ^ U c L [ ^ R / ^ Q / Q R ^ / W Q Y v L [ / ^ / / ^ / / ^ Q ! ^ / P c P | / / / E / / ^ ^ ^ / W / P c ",
"L { ) R R R R ~ ) ) ^ ^ ^ ! U x L ` ! / / ^ ^ _ ^ T Q _ ^ ^ L h H ` ^ / / ^ E ! / _ ^ E W W L c P [ ! ) ! E ! / ^ ^ ^ ! / / P c ",
"L [ ( ) E R Q Y R W W ^ ( ^ U x L [ ! ! / / / ^ U W / / ^ ^ L x P [ / / R W / ^ E W W W R W P h G ) ! ! R W T ! / ^ ! E / / P c ",
"J ] ( ^ ( ) _ Q R U ^ ! ^ ^ Y l H [ ^ ! / / ^ R E ^ _ / / ! U c H ` ^ ! R / / ^ / ^ E P / ) L h G / / / W Q W W T Q / ^ / / P l ",
"Y ` ! ( ) ^ ( ) ( ! ^ ( ( ^ I j P ` W Q ^ ! E T ^ ` ) ! / / P h L _ ^ E T ^ _ ^ / _ / / / ^ Y z L ` / / / / ! T W ! / / / ^ Y c ",
"G ' ) ( ~ ^ ( ( ' / W ! ^ ^ Y k K ` ! ! Q E E Q W ! / ^ / ^ U k H / ^ ! Q T ^ ^ ^ ^ ^ ^ ^ ^ E l H ` / _ / / / T W W W / / / P f ",
"I ' ^ / ~ / ^ / Q / ) ^ ^ ( P f L ` ^ Q E Q ! ^ ^ E ^ ) ! / Y h P _ ^ ^ / W / ^ ^ ^ / / / / P f P [ ^ ! / ^ / ! W E E W ^ / Y h ",
"J ) ~ ^ ^ ( ^ / / ^ / ~ ^ ^ D f K ) / / ^ / _ / ` / ^ / ^ / L h G _ ^ ^ ^ ^ ) ^ / ^ / ^ / ^ F h H / ^ / ^ ! _ ! _ _ _ / / / A h ",
"h A V b b b b b V v b m n x q 6 c D A V V V V V N V V Z Z c w 7 h S N N c x v b b c b b N z 0 7 h S N v N b b N b v b b b z 0 7 ",
"4 i r w i q q r 7 q q 0 4 0 2 q 4 i y r i y r w w e 0 0 0 r 2 0 0 i r 0 w 0 w e 0 0 e 7 7 0 2 0 2 y y 0 0 y y 0 0 0 0 0 0 0 2 0 ",
"q P | { | ` ` _ ` | [ { ..{ S q r L {  .] ) _ ) _ ` { } { { D 7 e L  .[ }  . .} [  .{  .} ] S e 0 L { .. .[ _ ' ` / / { ..[ F 0 ",
"J | { | ] ) ` ) ' { } { ] { Q b A ' { [  .) / ` ` ` ) ] { { ! N G .. .{ ] ] | [ _ ` ' | | ] E m G .. .} {  .` / ^ / [ [ { ] Q M ",
"K { ) / R T ! ~ ! ^ ^ ^ ^ / Y b P ] ! Q ^ Y R Q ! ^ Q ^ / ^ U z J ' Q / / / / / / ! ! / / / P c L { ^ ^ / / Q R W ^ ^ ^ / ^ T c ",
"L { ^ / E Q / ) / / ^ / ^ ^ I b K ' ! ! / R Q ! / / ^ / / ^ U v P [ ^ / / / ^ ! E R T E Q ! T c P { / ^ / _ Q E / ^ / ^ ! / T v ",
"J [ ^ ) E Q Q ! ^ ~ ^ / / ^ U c K { ! ^ ^ Y ^ / / / ^ ^ ^ ! P c G ] / / ^ ! Q W / ! Q / / / P x H ' / / / / Q E ^ ^ / ^ ! ! P z ",
"L } / ) R E E ! ^ / ^ ^ ^ ^ I z L [ ! / / R ^ ^ / / ^ / ^ ^ U c P ' / / / ^ ! / / / / / ~ ! P x L ] / ^ / / ^ W E / / / / / P c ",
"H ' ^ / R R Q ! ) _ / ! ~ / Y z H ] ^ ) ^ R ! ! W Q W ^ ^ ^ P l P ' / Q / / / / / ! / / ! / P c D _ / ^ ^ / ^ ^ T ! / / W ! P x ",
"L ] / ) Q R W W Q W E E ! / U z L [ ^ ^ R Y W ! E W E ! / ^ U z L [ / Q ! / / / ! ^ / / / / P k A / ^ / / ^ / / R / / / E ^ P x ",
"L ' ^ / Q R Q E Q W E ! / / P j K ' ^ ) ^ ^ ! E E E E Q ^ ^ P l L ' / Q E E Q / / / / / / / P z G ! Y E ^ ^ / / E / / ^ R / P z ",
"K ' ^ ^ ) / / ^ R E T ! / ! Y l H ' / ^ / / ^ ) / ^ R E ^ ! Y l H ' / / / W R ^ Q / / ~ / / T h D ^ ! W E W ^ / ! E / E W / R h ",
"P ) ^ ! ~ ) / ~ ` ! E ~ ) / U h P ` / ! ^ ) / ^ / ^ ^ ^ ^ ^ Y k L ' W / / T ^ ^ _ / / / / / P h H ] / Q _ / ! ! / ^ / ^ / / Y h ",
"H ' ^ ^ ) Q ~ ) ^ ~ / / ! ~ P l H ' ^ / ) Q ! / / ^ ^ Q ! / P d H ` / / / R T / / / / / / / P h L / / ^ ! ^ / / / / / ^ / / P h ",
"K E ^ ^ ! ! W / / / / / / / A i L E ^ ) / / ^ / ^ ^ ` / ! E Z s J W / / Q Q Q W / ~ / / ~ ! Z s H ^ ^ / W Q / / ^ / ^ ^ / / V s ",
"r D c f k j z l h d d h f a 4 0 y Z k f h h k f h f h h k s 7 0 y V z h h x v h k h h k h p 3 0 r V b h h h z h h h h h h s 2 0 ",
"6 y r r r e q r p r r q q q 4 w 0 y r r w w 0 e 0 r w 7 0 w 0 y y y 0 y y 0 y 0 0 0 0 0 0 r 4 4 0 f 0 0 e 0 e a y 0 e 0 0 y 0 0 ",
"q / O.+.+.+.+...] ` } +.%.o.L q 7 ^ o.O.@.@.#.+.O.@.+.@.#.O.K w a Q @.+.+.@. . .+.@.#.O.#...P r 0 T  .....O.#.....+.@.$.$...J e ",
"P { { ' ] [ ] _ ) ! ] [ ` ` ! b P  . .` ' ] ' ' ] ] ] [ ` ' E V G ' ' ' ' ' ` ^ { _ ] ' ' ' ! M G [ / / _ ] ' ] / ' / ' ' _ ! m ",
"K { / ~ ( ( W E ~ ^ ~ ~ ~ ~ U v J [ ^ / ~ ( ^ ( / ~ ~ / / ~ I v P ' Q ^ Q / / R Q / / / ^ ^ T b G / R / / / ^ / ^ ^ ^ ^ ^ ^ P x ",
"K [ ~ ! ~ ! Q ^ ^ / / ^ ^ / I c L { ( / ^ ^ ~ ~ / ^ / / ~ ~ U x P ' ^ / ^ ^ / W ^ / ! ^ ^ / P c D / E R / / ^ / ^ ^ ^ ^ ^ ^ P c ",
"K ] ^ ^ ^ Q E ! ~ / / ( ( / I x D ` ( ( ^ ( / ) ( / / ~ Q ~ U v L ' / / ^ ^ Q Q / / Q ^ / / P x H / / R Q / / ^ ^ ^ / ^ / / P v ",
"K ] / ( ( ! E E ~ ^ ^ ^ ~ ^ I z A ) E ^ ~ ( ~ / / ^ ~ ~ W ~ U v L ` / / ^ / E ^ / ^ Q ^ / ^ P z P ` / / W / ^ / / / ^ / / / P v ",
"K ] / ^ ^ / ^ ! ~ ~ ! Q Q ~ I z G ( T E ^ ) ( ^ ~ ^ / ^ / / U z P ' / ^ ^ ^ E / ^ ! Q / / ! P z L ] ^ / Q ^ / / ^ ^ ^ ^ / / P c ",
"H ] ( / ~ / ( ( ^ ^ ! Q Q ~ I z F ^ ! W ) ~ ( ~ ( ^ ^ / ~ ( U z J ' / ^ W E R ^ ! ! / / / ! H h P ' ^ / / R Q ^ Q ^ ^ ^ / / P c ",
"G _ ~ ( ^ ( ^ ^ ^ ( ~ ~ ~ ( U l F ( / ~ ( R E E ^ ~ ~ ^ ~ / U x J ' ^ / ^ E Q Q ! ^ / / / / P z L ' / / / W W ^ ^ ^ ^ ^ / / U x ",
"G ^ E ~ ^ ^ ^ ~ ^ ( ^ ^ / ( U l K ' W / ( ( ~ ~ R E ~ ( ( ~ P z L ' ^ / / ^ / W E W W ! ! / P z H ' / / / / Q / ^ / / / / / P l ",
"L _ ^ ~ W ! ^ ) ^ ~ ~ ( ( ~ W h L [ Q ~ ~ Q ( ~ ~ W ~ ( / ! E j J ] ^ / / / _ / / Q Q ! / / P h P ' / / / / / / / / / / / ^ R h ",
"K ] / / ~ Q Q E ! ( ( ~ / ( L s K ' / ~ ~ ~ ^ ( _ ( ( ^ ( ~ L j J ` / ^ / / ^ ^ / ^ / / ! ! P h P _ / ! / / _ ! Q ^ / / / / P h ",
"F I Q ! Q ^ Q Q Q Q ! W ! E v a F R Q W R R Q W W W Q W ! R v p F T R ^ E ! Q Q ! E T E W E V y H T W Q E ! R Q W ^ Q R W T c u ",
"r V x a s s f a s s f f s i < 0 0 C k s h s l s d d d p p p 3 q t V h f s p h h a f h h a i 0 0 0 V h s s h p h f f h a s a 1 0 ",
"0 y k l l k h k k k h h h l p 0 w y k j k x h l j j h k k l r 3 0 y h x h c i h h h h h h h y 0 0 y h h h h h h h h h h h h i 0 ",
"a ' @.%.%.@.$.+.| ..o.$.$.o.Y p p ` @.$.%.@.$.@.#.#.+.#.#.o.R d h ] #.%.%.@...{ ......#.&.@.P a h ` @.&.%.O.O...%.%.$.&.#...P a ",
"K { ` / ^ _ ' ( Q ~ ) ` _ ( R n K ..' ) ( ( ' ( ( ) _ ) ( ) W n L .._ / / _ _ / Q / / / / / E n P .._ / / / / / _ / / / / / ! b ",
"K } ! / ) ! / _ ~ ^ ( ~ ~ ^ U v L { ^ ~ _ / ~ ( / ~ ( ~ ( ^ U n H { / ! / / ! / / Q ^ / / ^ T x H [ / / / T / / / / / / / / P b ",
"J { ( ^ ~ ~ ~ ( ~ ) / ! ( ( I b K { ( ( ~ / ~ / / ( / ^ ! Q L v P [ ^ ^ ^ ^ ^ ^ Q / ! ! / ( P x P [ / / R ~ ^ ( / ~ ~ / / ^ U v ",
"G ` / / / Q ! ( ~ _ ( ~ ~ ~ I b D ( Q / ^ ^ ~ ^ ^ ^ ^ ~ ! ! L x J ' ^ ^ ^ ^ ^ ^ E / / ~ Q Q P b H ] / / R Q ~ / ^ ^ / ( ^ ~ U v ",
"H _ Q / ) ( W E ! ~ ! ! / ) U x G / W Q ~ ~ ^ ( / ~ ~ ~ ~ ~ I z P [ ^ ^ ^ R W E ! / / ! ~ ~ I v H ] / ! W W Q ~ / ^ / / ^ ^ U x ",
"A ( R W E ~ ~ / ! ~ / ( ~ ~ U x G / E R W W Q Q ~ / / ~ ^ ^ U x P [ ^ ^ ^ ^ ^ ^ / / ~ ~ ) ) U z P ] / / / ~ Q W ~ ^ / / ^ ( U l ",
"S ` ( ) ~ ~ E T W T E ~ ! ! I x G ` ( ~ ( ( ( ~ / / ( ! ~ ^ U z J ' ^ ^ / / / / / / / / / / U z P ' / ~ ) ^ ~ ! ! ~ ^ ^ ~ ~ U x ",
"L ` ~ ( ! ( / ) ^ Y I R ~ ( I k S _ ^ ~ ~ ( ( ! / / ( W ~ ~ U l K / ^ ^ / ^ ^ ^ / / / / ^ ^ U z J ' / ~ / ~ / ( ~ Q W Q ! / U z ",
"K ' ^ ) R R W ~ ( ( ~ ^ ~ ^ I z H ' / / ~ ( ( ( / ( ^ E ~ ~ Y k P / ^ ^ / / / / ^ ^ ^ ^ ~ / U l K ' ^ ^ ~ ~ ( ( ~ E R W ~ / I j ",
"K ' ~ ( T ! ! Q ! ^ ( ^ ^ ( I k K ] ~ ( ~ ( ~ ^ / ~ ~ T ~ ( T k P ' ^ ^ ^ W T Y W ^ / / ^ ^ U l P _ ~ / ^ / / ! W W ~ / ^ ~ P z ",
"L ' ^ ^ R Q ) / ) ) ^ ( ^ ^ T j K ` / / / ( ^ ~ ^ ( T R ) ) P k K / / ! E / ^ ( ( ( ( ~ ( ^ P l H ` ) ^ / ^ / / W W ~ ( ~ ^ Y h ",
"B P P P L H U U I I Y I T L s 0 V R P U L P I U U F H L U H h r M L H H H T Y U I U Y U U K f r N Y L P P Y Y T Y H K R T K d q ",
"7 b f i g a f a p p e y e r 0 0 0 h d h p p a d f e p y s s 2 0 t h s a s h s p i i i r r y 1 7 r k a f p f p p s p r y e y 3 q ",
"= # $ = $ = $ = $ = = $ $ $ $ = $ - $ = $ $ $ $ $ $ $ $ $ $ = = & : = $ $ $ $ $ $ $ = $ $ o < = * = = $ = @ $ $ = $ $ = = $ $ $ ",
"X $ # . . o # o = X o o = $ $ o o @ X @ o % o X o o o o % . o o . # X o o o o $ o X o @ @ . @ . X o o @ o o o o o @ X X o $ $ o ",
"#   u f u u w 9 v B g g v 3 $ o @ o o @ @ @ o % $ o o $ % @ o # @ % o @ @ o o o # @ @ X @ * @ 8 : , ; 2 ; , - : ; 9 w 7 4 q $ o ",
"X $ , , , : 6 , u t u t y 1 o o % % % % % @ + % + O & o % & O + o @ O @ % % % o + @ % @ o @ X 8 5 6 5 9 8 6 5 6 6 , , 0 w 0 o $ ",
"+ + @ # @ X # @ + + @ o o $ o o @ % % + & % + % % % % % % % + & % % % @ % + % % % + @ % % + & X @ @ # X @ @ . @ @ @ @ @ . . $ o "
};
