/* XPM */
static char *_f008e302b5e08fb7df32a183127b21a1686335621[] = {
/* columns rows colors chars-per-pixel */
"64 64 167 2 ",
"   c #1E1E1E",
".  c #202020",
"X  c gray13",
"o  c #222222",
"O  c #232323",
"+  c gray14",
"@  c #252525",
"#  c gray15",
"$  c #272727",
"%  c #282828",
"&  c gray16",
"*  c #2A2A2A",
"=  c gray17",
"-  c #2C2C2C",
";  c #2D2D2D",
":  c gray18",
">  c #2F2F2F",
",  c gray19",
"<  c #313131",
"1  c #323232",
"2  c gray20",
"3  c #343434",
"4  c #353535",
"5  c gray21",
"6  c #373737",
"7  c gray22",
"8  c #393939",
"9  c #3A3A3A",
"0  c gray23",
"q  c #3C3C3C",
"w  c gray24",
"e  c #3E3E3E",
"r  c #3F3F3F",
"t  c gray25",
"y  c #414141",
"u  c gray26",
"i  c #434343",
"p  c #444444",
"a  c gray27",
"s  c #464646",
"d  c gray28",
"f  c #484848",
"g  c #494949",
"h  c gray29",
"j  c #4B4B4B",
"k  c #4C4C4C",
"l  c gray30",
"z  c #4E4E4E",
"x  c gray31",
"c  c #505050",
"v  c #515151",
"b  c gray32",
"n  c #535353",
"m  c gray33",
"M  c #555555",
"N  c #565656",
"B  c gray34",
"V  c #585858",
"C  c gray35",
"Z  c #5A5A5A",
"A  c #5B5B5B",
"S  c gray36",
"D  c #5D5D5D",
"F  c gray37",
"G  c #5F5F5F",
"H  c #606060",
"J  c gray38",
"K  c #626262",
"L  c gray39",
"P  c #646464",
"I  c #656565",
"U  c gray40",
"Y  c #676767",
"T  c #686868",
"R  c DimGray",
"E  c #6A6A6A",
"W  c gray42",
"Q  c #6C6C6C",
"!  c #6D6D6D",
"~  c gray43",
"^  c #6F6F6F",
"/  c gray44",
"(  c #717171",
")  c #727272",
"_  c gray45",
"`  c #747474",
"'  c gray46",
"]  c #767676",
"[  c #777777",
"{  c gray47",
"}  c #797979",
"|  c gray48",
" . c #7B7B7B",
".. c #7C7C7C",
"X. c gray49",
"o. c #7E7E7E",
"O. c gray50",
"+. c #808080",
"@. c #818181",
"#. c gray51",
"$. c #838383",
"%. c #848484",
"&. c gray52",
"*. c #868686",
"=. c gray53",
"-. c #888888",
";. c #898989",
":. c gray54",
">. c #8B8B8B",
",. c gray55",
"<. c #8D8D8D",
"1. c #8E8E8E",
"2. c gray56",
"3. c #909090",
"4. c gray57",
"5. c #929292",
"6. c #939393",
"7. c gray58",
"8. c #959595",
"9. c gray59",
"0. c #979797",
"q. c #989898",
"w. c gray60",
"e. c #9A9A9A",
"r. c #9B9B9B",
"t. c gray61",
"y. c #9D9D9D",
"u. c gray62",
"i. c #9F9F9F",
"p. c #A0A0A0",
"a. c gray63",
"s. c #A2A2A2",
"d. c gray64",
"f. c #A4A4A4",
"g. c #A5A5A5",
"h. c gray65",
"j. c #A7A7A7",
"k. c gray66",
"l. c #A9A9A9",
"z. c #AAAAAA",
"x. c gray67",
"c. c #ACACAC",
"v. c gray68",
"b. c #AEAEAE",
"n. c #AFAFAF",
"m. c gray69",
"M. c #B1B1B1",
"N. c #B2B2B2",
"B. c gray70",
"V. c #B4B4B4",
"C. c gray71",
"Z. c #B6B6B6",
"A. c #B7B7B7",
"S. c gray72",
"D. c #B9B9B9",
"F. c gray73",
"G. c #BBBBBB",
"H. c #BCBCBC",
"J. c gray74",
"K. c gray",
"L. c gray75",
"P. c #C0C0C0",
"I. c #C1C1C1",
"U. c gray76",
"Y. c #C3C3C3",
"T. c gray77",
"R. c #C5C5C5",
/* pixels */
"e V F F V F V y n =.-.=.O.#.=.L 4 O.O. . .=.2.2.=.=.O.O.O.O.) 8 y F F F F F F s R 2.6.2.=.=.-.V B  .O.O.O. . .=.-.2.=. .] ] ~ % ",
"l U R U U U U l #.V.M.V.M.V.V.8.R M.P.P.T.P.P.S.H.P.H.P.H.H.k.R B R L L L L L n q.M.n.M.M.V.M.#.~ s.M.H.P.P.H.P.S.H.H.P.P.H.k.B ",
"l L U U L L L g #.n.k.M.V.M.M.q.~ n.V.M.M.M.M.V.V.V.V.V.V.V.k.U B U L U U L L n y.n.k.n.V.V.M.O.2.H.S.V.M.V.V.M.V.V.M.M.M.S.n.n ",
"l U U L U U L l #.n.n.M.V.V.V.8.~ n.M.M.V.V.V.V.M.M.n.g.n.n.n.U B F L R U U U l q.M.M.V.V.V.M.=.6.S.V.M.M.V.V.V.M.V.V.M.n.M.k.l ",
"l U L U L U L l O.V.M.V.M.V.V.8.L y.g.n.M.M.M.V.V.S.V.n.M.V.n.U B L L L F L U l 6.M.M.V.M.M.n.O.8.V.V.V.V.V.M.M.M.V.S.S.M.V.k.n ",
"l U U U L U L n  .V.M.V.M.V.V.q.~ g.k.k.n.M.V.S.M.V.V.M.V.V.g.U B R U U U U U g 8.M.V.V.V.S.M.O.q.V.n.M.V.V.V.S.V.M.n.M.n.V.n.B ",
"l L L U L U L n  .M.M.V.M.M.S.q.~ n.M.M.M.M.M.M.V.V.V.V.V.V.k.R g L L L L F V g 8.M.M.M.M.M.V.=.q.S.V.V.V.V.n.M.V.V.M.V.S.V.g.n ",
"4 g g g g g l e s O.] O. .] O.L R n.V.V.M.V.V.V.M.V.M.V.M.V.g.R 8 g g g l s s e l R R R U R R g q.S.M.M.V.V.M.V.M.S.M.V.V.n.y.n ",
"e #.n.k.s.s.g.g.g.k.g.k.n.g.8.F ~ M.M.V.V.M.V.V.V.M.V.V.n.V.g.R U s.n.n.k.k.k.y.O.=.y.g.g.s.8.8 s.V.M.M.M.M.M.S.V.M.V.M.M.M.s.l ",
"U k.M.M.V.S.M.V.M.V.M.V.V.V.n.] U M.M.V.V.M.n.M.k.M.V.V.H.n.s.L #.V.V.M.V.M.V.V.M.M.S.V.M.n.q.y q.M.M.M.V.S.M.M.M.V.M.n.H.V.s.n ",
"L M.V.M.V.M.M.V.M.V.V.V.M.V.M.] ~ S.V.V.M.M.g.g.M.V.M.M.s.M.g.R U n.M.M.V.V.V.V.V.V.n.M.S.V.n.V q.S.V.V.M.V.M.M.M.S.g.n.n.g.s.B ",
"F M.V.S.M.M.V.V.V.V.V.M.M.V.M.] R H.M.V.V.V.n.M.M.V.S.q.k.n.g.R y y.V.M.V.V.V.M.M.V.M.M.M.n.M.F q.M.M.V.V.V.M.V.S.n.M.=.S.#.g.l ",
"L H.M.M.M.n.V.V.V.M.V.V.M.S.V. .R S.M.M.M.S.M.V.V.M.g.6.S.S.q.~ B k.S.M.M.V.V.V.V.V.V.S.M.M.V.V q.M.M.M.M.V.M.M.V.k.H.s.U #.O.n ",
"V P.M.k.V.n.k.M.V.V.M.V.M.M.n.~ ~ S.V.V.V.V.n.M.V.n.=.V.M.V.k.U O.S.V.V.V.M.M.V.M.M.M.M.V.V.S.F =.n.S.M.M.V.V.V.V.V.k.s.8.g y y ",
"L V.S.M.S.M.n.s.V.V.M.M.M.n.g.] U k.n.n.M.k.k.n.y.O.n.n.k.S.8.L -.V.M.V.S.M.n.M.S.S.V.n.S.M.k.L B O.-.2.=.-.-.6.6.2.8.=.=.#.; o ",
"4 U ] ) ~ ] ) y ~ ) ) ] O.O. .l 4 ) ) ) ~ R R U e U R L ~ F U ; s ) ~ ) ] ) ) ] ) ) ] ) =. .) y % 8 < 8 e < # % % # % < ; % % # ",
"; U R ) ~ ~ ~ ~ ~ R ) ]  .~ L e R 6.8.2.#.#.#.g l q.q.8.6.2.6.] ; l l n n n F F U V F F ~ F V e -.6.s.2.q.n.s.g 2.y.n.g.k.n.k.R ",
"8 R R U U U U U U L U R ~ R R s q.S.M.V.V.S.V. . .V.M.M.M.M.V.y.s ~ ) ] ) ) ~ ~ ~ R ~ R  .] R 8 n.q.V.V.H.V.n.~ y.2.M.M.S.n.M. .",
"e R U L L L L L L L L L L U R g q.V.n.V.V.V.V.O. .n.k.M.V.V.V.s.8 R U U U U L L L U U L R R L 4 k.2.V.V.V.M.M.~ s.8.V.M.V.M.V. .",
"e R U L U L U U U U U L L L U s y.V.M.S.M.n.M.O.] M.M.V.S.V.V.y.8 R U F L U L U L L L L L F V y s.2.S.M.M.V.V.R s.M.V.M.V.V.M. .",
"8 R L U U L L L L L L U U L L g y.M.g.M.V.V.V.O.] V.V.V.M.M.M.q.< U U L U U L U U L L L V g e o k.6.V.V.V.S.V.) g.S.n.S.S.n.M. .",
"8 U L L L L L L U L L U U F L l q.n.g.M.M.V.M.O.) M.V.V.V.V.V.y.< U U L U U L L U U U R ~ R L e n.q.M.M.V.M.n.R y.n.M.M.M.g.V.~ ",
"8 U L L U L U U U L L L U L U g y.M.M.V.V.M.M.O.] M.M.M.V.V.M.q.< F L L F U U L U U L L L U V 4 n.V.V.M.V.S.M.~ y.n.V.n.k.k.S. .",
"4 U L L U L L U F L L L L L U g q.V.M.V.M.M.M.O.; V n n B B B y ; V L U L L U L L U U U U U V 8 k.S.n.M.V.V.n.~ 8 g g g g l g 4 ",
"4 F L U L L U F L U L L L U L g y.g.n.V.V.M.M.O.F R U L L L L 4 ; B U U U L L U R L L U L U F 8 n.V.V.M.V.V.M.) V L L L V V l % ",
"e F V L U L B U L L L U L U L g q.M.V.V.V.V.V.O.F U L L L L U e ; n L L L L U U U F U L U F F 8 g.V.V.M.V.V.V.R R U L L U L F 8 ",
"e B L R F F V L L U L L L U L s q.V.V.M.n.M.V. .L U L U U L U y ; B U U U U U L L L R L R L F 8 k.V.M.V.V.n.V.~ R F L U U F F 8 ",
"4 B F U n L U U U U L U L U L g 8.M.S.S.S.V.M.O.L U L U L L L e ; V R U L L U F L U U L L U B ; n.M.M.V.M.y.M.) L B U U L F L 8 ",
"8 ~ B n V L F U L L F L L U F s 8.M.V.M.M.M.M.#.L L U L U U U e 4 F R L L L U U U U L F L U n % k.V.M.V.n.s.M.~ R F U L L U U e ",
"4 n g n U U U U L U U U U L F y q.S.S.k.n.M.V.=.L F L L L R L y 8 V R U U U U L U L L B R U V 4 g.S.M.n.M.n.V.~ ~ L L L U U L < ",
"# # e n B F L V F F F L F V n 8 =.n.M.n.V.M.n. .L F U U U L L g < g n n n l g g l g g y B l n 4 2.y.q.8.y.y.s.U U U U U U U F 8 ",
"#   y 8 8 e 8 e e e 8 y e e e % y L F F U F F 8 8 8 y y y e y ; o ; # # % % % % # ; # o # % %   4 y s y g e g % ; < < < ; < < # ",
"y F V l y g n # 8 y y g s y y % # F F V F V V F V F B L V F B # y F F F V V F e ; s s g y s l ; 4 l g n B B n V B V n B V l l o ",
"2.M.S.H.n.H.k.4 L ~ R R U R R n L g.M.V.H.H.P.P.H.H.V.V.M.n.y.U 6.M.M.V.V.M.n.2.g U U U F L U y #.n.V.S.S.S.S.H.P.T.S.V.V.n.y.n ",
"-.M.M.V.n.S.n.4 B U L F L U L s ~ M.S.M.n.n.V.M.V.V.M.M.V.V.k.U 6.M.n.M.V.V.M.2.l U L U L L L 8 ] k.V.V.M.M.M.V.n.V.M.M.V.S.k.n ",
"O.V.V.M.V.M.n.g B U L U U U L s U n.V.V.V.V.S.V.V.V.n.n.V.V.n.U 2.n.k.n.M.V.M.-.g U L U L U U 8 2.S.S.S.V.S.V.M.V.V.V.S.M.M.g.l ",
"] S.V.n.V.V.M.e n L U L L L L g ~ k.n.n.V.M.M.M.V.V.M.k.M.M.k.U 2.V.M.V.S.V.V.-.g L L L L L U 8 6.V.M.M.M.V.M.M.V.M.M.S.M.M.n.B ",
"2.M.V.V.M.V.S.y B L L L L L L l U y.y.y.k.k.M.V.M.V.V.V.S.V.n.R -.V.V.V.M.M.M.-.g U U U L L U 8 q.S.M.V.V.V.V.V.V.V.V.V.M.V.k.n ",
"6.k.M.S.V.n.M.s V U L U L U U l ~ n.V.S.S.S.S.V.M.V.M.V.M.V.g.U 2.M.M.M.M.M.V.6.y L F L B V F 8 8.S.M.M.M.M.M.V.M.V.M.V.V.V.k.n ",
"#.n.n.s.n.k.g.e n F V F L F V s R n.S.M.M.M.V.M.V.V.M.V.V.V.g.R R q.y.y.q.q.q.) e F F V B V F 8 8.S.V.M.V.V.V.V.M.V.V.V.M.M.s.B ",
"% R 2.2.2.#.=.]  . . .O.O. .) y R n.M.V.M.V.V.M.V.V.M.M.S.V.k.U y  .O. .O. . .~ g F ) ] ] ~ ) % q.S.M.M.V.V.V.M.V.M.V.M.S.V.8.B ",
"R M.M.M.M.V.V.V.V.V.M.M.M.n.k.) ~ V.V.V.V.V.M.M.g.M.S.V.M.V.y.U =.M.M.M.V.V.M.M.V.M.M.V.S.V.y.e q.V.M.V.V.V.V.M.V.V.M.M.V.V.q.n ",
"F S.V.M.V.V.n.V.M.M.M.V.M.V.M. .R V.M.M.M.n.k.k.M.M.M.S.n.n.g.~ ) V.V.M.V.V.V.V.V.V.V.V.V.M.g.B y.V.V.V.V.M.V.V.M.V.V.V.V.M.g.n ",
"F M.V.M.V.M.S.M.V.V.V.S.M.V.V. .R H.V.V.V.V.n.V.M.S.n.s.g.n.g.U g g.S.M.M.V.V.V.V.M.M.M.V.M.n.F q.V.M.V.V.M.V.V.M.V.M.M.M.M.n.l ",
"R V.V.V.S.M.S.M.V.M.M.V.M.M.n.] R S.M.M.V.V.n.V.M.V.S.-.S.V.y.R g s.V.M.M.V.M.M.V.V.M.M.V.V.n.B y.V.M.V.V.V.V.V.V.S.M.S.V.V.V.B ",
"V H.M.M.M.n.n.M.M.M.M.V.V.M.M.] ~ S.V.M.M.V.M.V.V.n.=.V.M.V.g.R ] M.V.V.S.M.M.V.M.V.V.V.V.V.M.U 6.M.M.V.M.M.M.M.M.V.M.V.M.M.n.n ",
"U H.V.M.n.M.V.n.M.S.V.M.M.M.g.~ R V.V.V.M.M.V.M.M.=.g.k.V.V.s.U -.S.V.V.V.M.M.V.V.V.M.n.M.M.M.F =.n.V.V.M.V.V.V.V.V.M.V.V.M.k.B ",
"g 6.y.q.s.y.q.L q.s.q.q.y.y.8.L e 2.2.6.-.2.2.-.B -.8.2.6.6.#.y U q.q.y.y.y.s.y.y.y.y.y.s.y.8.s B #.2.6.-.6.6.6.8.8.6.8.6.6.#.; ",
"o l B B n B B B n l n L L V B e l L ~ ~ L F L 4 < 8 e e e e 4 o # s e y y e e s g y s s L l B 8 F U ) U R F F # e y y y y e e # ",
"y R ~ R ~ R R R ~ ~ R ] ) ) ~ n 6.y.n.s.k.S.M.R R R R ~ R L n % y U ~ ) ] ] ] ] ] ] ] ) O.) R s M.M.V.M.V.M.g.L R R U L U F V < ",
"8 ~ U L L L L L U R L U U U L y s.6.n.S.S.V.M.O.U L U L U F F 4 e R U R U R U L L L L F R U L y S.V.S.M.V.S.n.F ~ U L U R U L ; ",
"8 ) L L U L U U L U U L L U R s y.2.V.V.M.M.M.O.U F U L L F L y e R L L F L L L U U L L U U F s S.M.M.M.M.V.V.F R U L L L U L ; ",
"4 ~ F F U L U L L L L U L U U s q.2.M.M.M.S.S. .U F R U U L U e 4 L U U U U U L L U L L F V g < S.M.M.M.M.M.V.U R L U L L L L < ",
"8 R L L U L L L U L L R L L L g s.6.n.V.S.M.M.O.L F L L U L L e 4 L U U U L L L U U L U L L n y S.k.k.M.V.M.V.V R L L L L U L 4 ",
"e L L U U L L L L L F U L L L g s.g.V.V.M.M.n. .R R U L L U L y < F L L L L L U R L U L L L B s V.M.n.V.S.V.V.L ~ U U U R L F < ",
"e F L L U U L U F L L U L U U s s.M.V.V.V.V.M.O.s g g l g l s < ; V L U U L L U L L R F U R V y V.S.M.M.M.M.V.F g g g g l l l % ",
"e F U L U R U V L L L L L U L g s.M.V.M.M.V.M. .~ 6.6.6.2.6.2.V ; B L U U L L U L U L R F U V y M.n.M.V.V.V.V.B O.6.8.6.2.2.-.n ",
"4 F V L U L V R L L U U L U L g y.n.M.V.M.V.M. .6.V.M.M.n.V.V.=.; B U U L F U L U L L L U L L y V.M.M.V.M.M.M.V k.V.M.M.M.V.M.) ",
"e V F ~ F V F L L L U U L L F g s.M.V.V.V.V.V. .6.V.V.M.M.V.M.-.% B U U U L U L R U U L U L F e V.V.V.V.M.V.M.V n.V.M.M.V.S.M.) ",
"8 V V U B F R F L U L L L U U g s.M.M.V.M.n.M. .6.M.M.M.V.M.M.#.; V R U U U U L V L L U U U V s M.V.V.M.M.V.M.B g.M.V.V.M.M.M.R ",
"8 R B n F U F U L L L U L U F y s.V.M.V.n.g.n. .6.M.V.V.V.V.M.#.4 F U U F F U L R ~ L L L V g % M.V.V.M.V.V.M.B k.V.V.V.M.V.V.~ ",
"4 l g n L R L U U U L U U U V y q.V.M.V.k.g.M. .6.M.M.V.M.V.M.=.8 V R U U U U U L F F V ) U L e M.V.M.n.M.V.V.F n.V.M.M.M.V.M.~ ",
"o o e l n V F V B V V F V B n 8 8.M.n.n.n.k.V.O.2.M.V.M.M.V.M.=.4 l B B V V B n B n B s F B B e k.V.M.M.M.V.M.F g.M.M.n.V.V.M.) ",
"# o 8 < 4 4 4 4 4 4 4 8 4 4 8 # U #.O.=.#.=.6.l ~ q.y.y.q.y.q.R # < ; % ; ; % % # < % # % % ; #  .2.2.2.6.2.2.8 #.q.y.y.y.q.8.F "
};
