/* XPM */
static char *f45449e7b8ba44fca4b97a44b1e0606aE2DFqyZ0TQokLTB6[] = {
/* columns rows colors chars-per-pixel */
"64 64 46 1 ",
"  c #364253",
". c #394657",
"X c #3D4A5B",
"o c #414D5E",
"O c #424F60",
"+ c #465364",
"@ c #495667",
"# c #4A5768",
"$ c #4D5A6B",
"% c #515D6E",
"& c #535F70",
"* c #556273",
"= c #596576",
"- c #5A6778",
"; c #5D6A7B",
": c #616D7E",
"> c #626F80",
", c #657283",
"< c #697586",
"1 c #6B7788",
"2 c #6D7A8B",
"3 c #717D8E",
"4 c #737F90",
"5 c #758293",
"6 c #798596",
"7 c #7B8798",
"8 c #7D8A9B",
"9 c #818D9E",
"0 c #828FA0",
"q c #8592A3",
"w c #8995A6",
"e c #8A97A8",
"r c #8D99AA",
"t c #919DAE",
"y c #929FB0",
"u c #95A2B2",
"i c #99A5B6",
"p c #9AA7B8",
"a c #9DAABB",
"s c #A1AEBF",
"d c #A2AFC0",
"f c #A5B2C2",
"g c #A9B6C7",
"h c #AAB7C8",
"j c #ADBACB",
"k c #B6C3D4",
/* pixels */
";85588wwrwt82288wweweq888,u9998qqeeq88-07w0eewe0477-447700eee07e",
";358rwww8r88,688qeeewq559,9880qeqwq850;80weee0e0779&774ew0eeew7y",
"5558wwqet8885588qweewq555*885e78qeq558;740eeeee774117470ewe0w07y",
"248qwewrw858-658eqeqeq558*>,>10eqeq858;57eeeee074741400yeee0077y",
"15qeerwe8875>558eeeqe05,8$880qqrq0q058;57ee0qee077&177w0ee00097t",
"2qwqeewq8866;568eqeee81,0;59r0r0q8q878>870eweee74#->7twtee00970e",
">8qrrq8885571558qereq825q,99ee08840889,77eeeeq8110t>00w0ee00000t",
"2rwq85775558>85reeeq85555,8qe087840880,50wweeew7077100twee07770e",
"588p8885<565*57855,--,,12*$,8845441474&770e70877741107w0ee4>7747",
"*6685885<565O-55511115512+-1752271>11>O44444774>14&#747774744771",
"58p888757555,7880qqeeeeei;0yequdye9ree>w0089w0w4epw1p00ye7774400",
"6888p8885555>888qq888800e>ye0e7;788qqy1770009701700197w0w7444140",
"6888i8886558o885qqq008888$58222r90900y2940qeq00&00414wyww9777470",
"568i8ai8855%>656eerreee8q;5<4rqeq0788q>948qeeew;e0114wewe0094497",
"788i888888*5+5758qe0eeq78;7<7qqqqe0090>877eeeer8474400eeewee7477",
"6888a8ia88*555577eeeee057-7,7qeq0rq740>444qeeweq144177w0wewww44y",
"57888i8uqp>414444eweeew47-77qrqee0ee7714479wwwwe441177w0eeet074y",
"6666888uqu,41O>28tew0ww94>878eqq0e9e0w-7770eewee74>>7977ee0eee70",
"585588u8u,4419>>10eeeew47>8888880eee70>w979eewee014>&%407eytwe0e",
"58->588514qq>488we0440w07,8888e80700w010090eweeee7410w11e000w079",
"555555*5yee834884qtyyue4718878q440wwe7>0770weeee079>e07weeeeewwe",
"$:5>*>554444>>>3444444402#,21><<1>47#O#>1114744474>&>1>>14774477",
"$85688568e4y>>r84qq444407#48888e007111#7707we74444>&t07979000907",
"58555558y8r834u8eey4qqq48>r8qapy0104we>yee0et1->44414144449we0yy",
":555886uy888188844e4er4881y8q8887e0we7>07099e4>11>1>4444400ee07y",
":55588888ry8>488eqer8e8483yee8qq00e0e4-07e7et91>--4>74497wwee07e",
";55588u8rur8,788qqrere888<w8888eee0w44&00eweeyty4>4-74709w0eee9t",
";556u8yyr8881888qeeqry448>8488ere0e4>7;940e0w0e0e7>&747eeeeew09e",
"558888y888885558eee8e8488>888ee8wwe1>4-470tetee477>14400eeee097t",
"5588yi88y888,158eeeeee484>888eee0ew9>4-47w0e0et04w>1770yeeee709y",
"55588,=*58885558erreer448>8qreqr00e794:47eet0eew004>70y0teee077e",
"55,5,*56&588,558e8ee8444e>88rq88707797>490wweee077010ew4070wwe0t",
",5qw9882==98266qrqrrq225q,wq9t96709970<48eeeeee0044>4e1ewe4&,wey",
"5qw6qr655X5u,55qqq9885qrw:3r8,q570077w>70eeee00491440qt0er8w43ww",
"*,22,2,;+X;$+:,2=,222,,=%+ @2+=:>&&<>&#>1111111>>>>$,,124>>oo1;>",
",aruiuwrrqua$5uqqrrqrrutu$8wtutadppyy9%eqeeeerry0y4>s>prrt0yqwaq",
"2q6rq9925222,598989qqwqqq28rwqwq0yee004780q87000eq01q>ee994552:e",
"5qqwrr562556*q56rq988889q;qr8rq99qq7ey>74qe0000990824>teq9553558",
",5wwqw86q258;q56qqqwqq88q$2wqqqr0770qq4740qeqeq0804,344tqq67646w",
"2qwqrrrqq658$865qqrrqr866,95qwwqe0099q10480eeeqew4414740wqqq4666",
"2q8qrwqrq955,5568wqrw85=2=q38qqq0e0077&4700eeeeq636,53686rqw9:9q",
"288qrwqwr935,5668rwwwww55=838qqree0770O#$>rrrqrq965:<<3699ww099t",
"28869qrrrq8622558twqwrr56;86qqqqeeee70-41&Oeqreq932<<23694qww92r",
"2qq8qqrqwwq8,,,,;9urqww65:98qq88000eq0>9400>reqr05523<<243wwww5w",
"5889q9wr8622;2,=;8rrwrr66,8689q87eew07>w0e7ee0req66<6356<6wqww9w",
"29986qtq;588*,,2256559q85,9868889000e91w700wwyqe988<633320twww00",
",qrq8ww58qww22,,=262<28r8<9q998847wy91-7077rwee>;<5,99866ettrwet",
"+$$$++$$==;*+++++@***;=*=X@$$$@$&&&&..O#$--&---* $%X%&@@@%;=;==1",
"5fusauuuuurd;8srtttufuaaa*wiaiajjjkaut*uttttuiuaafq:jiafiuuutufw",
"2w8rqq8525,2,5699q99q8q9r,rqrw8qqqwwwt:99999999q0w9296wqq6333<56",
"56qrqr825556;855qw9999999*9qwwqq988qqt2669qq99q8966369twwq55623w",
"25wwqwq88556=q55qrqwqqq9w$5qwqrw996q6q2966wtqwwq992,6wwwqq666569",
"28wwrrwwq828*5889qqtwq668:65qqq9wq9q9q:9669rwwwq9q5<qq9twwwq6668",
"2q88rwwwr556;;559wwrr9652;959qrwwq9626%866qwwwww633<99wwtqtw636w",
"5q88wrwwwq5562556rr9q9955$866qqwqwwq66=6269wwwwwq32<699qqqww966t",
"28q8qwqwrqq6:2656rw68qr66=92qr8wwqqr99@@;3qwwwww9522996wwwwqt93w",
"288q89rrwqw8,588qw85trq66:w=r9999qwqqq:w9369twwwq36<6999t6tqtw6w",
"5q889qrqrr85,r8q629wq9w66;q,<9999w9ww62q6qwwww9tw563qw6*:w629q8w",
"29888qrrqqru;88598rr69r66,96<69686tqw8=2<3,,9tqwq66:q9%*qtqq9628",
",qqq88rrrqqr25258ww88rtw6,6w93q968q95=:68698<6tww66,96;26ttqtt9t",
"+;,==*,,2,;,X$**;:;*:;::: %=:@==*:=:%+X%::;;::::::%@:==*%::<<=<<",
"2rqqqqrruius2qiuuuuwtwtqu=uuiffffw9utw,ftttuttwwwt6<u99w36uuttft",
",522558q9u882qqq96q66qw69:tw9tqq<tqwqq<q9w98q98wq39:5226329wtq2t",
",652558rrq8822q8q68qww9663t9w869qwqww6@qq69989wq369=6363689www6w"
};
