/* XPM */
static char *_696eeb3d9c14992fee5a84afb325d44oor422gjviTGDdgz[] = {
/* columns rows colors chars-per-pixel */
"64 64 77 1 ",
"  c #312F23",
". c #36322A",
"X c #3B362D",
"o c #3C392E",
"O c #3B3731",
"+ c #3E3A33",
"@ c #433E33",
"# c #423F39",
"$ c #464136",
"% c #484137",
"& c #46423B",
"* c #4B453B",
"= c #4D493E",
"- c #504A3F",
"; c #4F4A40",
": c #534C42",
"> c #584F46",
", c #565146",
"< c #585247",
"1 c #575249",
"2 c #5B554B",
"3 c #5D594D",
"4 c #5B5650",
"5 c #5E5951",
"6 c #60574E",
"7 c #615A4F",
"8 c #635D53",
"9 c #645F59",
"0 c #685F58",
"q c #666155",
"w c #686156",
"e c #676358",
"r c #6B655A",
"t c #6E695E",
"y c #70675E",
"u c #706A5F",
"i c #6F6B60",
"p c #706760",
"a c #736D63",
"s c #786F66",
"d c #786F68",
"f c #767165",
"g c #787267",
"h c #777368",
"j c #7B756A",
"k c #7E796D",
"l c #7F7B70",
"z c #80776E",
"x c #817A6F",
"c c #837D72",
"v c #887F76",
"b c #868175",
"n c #898276",
"m c #878278",
"M c #8B857A",
"N c #8E897D",
"B c #90877E",
"V c #908A7E",
"C c #8F8B80",
"Z c #938D82",
"A c #969186",
"S c #989187",
"D c #979288",
"F c #9B958B",
"G c #9D998D",
"H c #9F9A90",
"J c #A0978E",
"K c #A0998F",
"L c #A29C92",
"P c #A5A195",
"I c #A8A197",
"U c #A7A098",
"Y c #AAA49A",
"T c #AFA99D",
"R c #B1AB9F",
"E c #B3AEA2",
"W c #B6B0A4",
/* pixels */
"@rsa0r00ypyy6-2sbkgxkxbbk7fnCbllbNh===eqwraau7777rww7uzbwunu7---",
":kvczzzszsy06>2BMxgauttttrVGGGGAGVN,qGPTTTWWRTPPVVVnbbVVVVVVVz-%",
"=cnvzzzzsyzyy0@vkurwwrttaiYGNANbbbNqlYbkxbbbnbbxxzxzwbubnnnnnnu%",
"%cbvvcczzss0yy@ygurywrrthePVbbNbbbN3NVNbbbxbbbxxgxxxbbubVnbubbu%",
"=vMMvvvvxzsauy*wjgauyrrakqANbbbbxbx7Vkbkxbxbxxgxxzgguguuxzuuzuw%",
":ZBBBvvvzsszu0%wgaautrfjktVNbblkxxa,bnbnbbxggggggubgguub7abzuzu%",
"2FSZZvvvvzusy7@ygsauytsjkibbbbblzzf3bnbbbgxggggggbuguutw7tuzuuu-",
"2FZZZcvvsvzzxz@yggggggzzbihlllklggw-kjnbbgggggggugutwtuutr7ugxg-",
"6BvcZJZBvBvvzs>8zvvvdpr82>:;=:11<32-unnVnjfgggfagtuuuuuuuwzwzxr%",
"@BLIIJJZSBBBBu-*>:>::6ypscNZAAADKSM3sjcVngugguafuubuuuuutubuwtw%",
"-2>sz66660svBa<>JJJJZZZBNNNMNNZZFFSrjjbnbgugguaggbbtuguwuuggrw7*",
"@vvz0zzszs070w>7JZvvvvBZZCNNNZVMMZVrwgxMngugjggauuuuubgwzbuzurr%",
"@vMvzzzzsjzj8y*yBvvvBvvBvNZSZBZBZSZr6sxVnxkggxjaugbuufxgzgagz7u%",
"*Bvzzzzzzzzzws*0ZvvvvvZZZZZZZBZZBMSw0unvbbbxgkxgguufxauxazzuawr$",
"@xzxccczzczsrw<wBvvvBvvvMBZSFJSZJZS08yccxxbbxjxkbuubxfguuxzuaww%",
"@gzvzszsysy0a288vvBBvBCBMZZSSFFFLSZa8acxxxgxxxxgfuubgxgxugguzzr%",
"-:822>>>77--7<<6nnnnnMVVZFZSSJJFAGCh3hbhkkkkhhbhufgghkhhkhkhhhto",
"*>yajsasaayw87<<<-7gggMVSSSFSFSZCACq,ihbbhhhhihhuffghhhftqeettqo",
">cKSZnMBnNMVSSSSZVVVNg72rjnnyr0whti3,3333,,33,,3<<7qee33333,,3,$",
"-vZczczjjgzzxxxcnVVxxVSg-:=wyrwathhi3,,=3ihhhhihgfbbbbbbhbkhtq==",
"*kxkzzkxgfffggxxgbxgjgjV-FFSFGPGGGNCAPGehCACACCCVVVVVVPPPPPGVCq=",
"%xnxkjkzxgfgagkkggbbgjbfyAggkhhlhkkNbCPhqbbkkkNNnNVVVPPRPPGPRPe=",
"%jgggbxuauaggkxxbgggxjggwgwrfkhhkkkNbbbh,hbbkbbbbnNVVVPVGPPPTPh,",
"=jkbgafggagjggxgxggxgzxuw8uuujikkkbhbbhh,hkbbkkkbbbNVPVPCCPPEPh,",
"-xbxgxjaggafgkgggfbghhxqqqttfffkbbkkNkht3qhkkkbhkbbNCAAAVANGAAh,",
"-bbjaggjfgggkgggxxgakkk7qqrtifhkhkbkNbkt,qhbbkhkkkbNCCAAVCCAbheo",
"-xxggjgxgxgggggzffgbkfk7qqttifhhkkkbCbkt3eebbkhhkkbbCCCCVCAAbtt=",
"-tugkgy8wugxxkggjbuwkkfqqtqtifhkbbbbbbkq3etbbkhhhkbbCCCNACCANii=",
"-77w--6w77wruuyrw-3-,q7;3ettffhkkbbNbbkq,qebklkhhhkbbNNNCCCCCii=",
"@*-uyuw67777wrwrfkj73,==3ttiffhhkbbbNCh333qbbkbkkkbbNNNNNCCCCit,",
"X7gxauaxzzxbnnvchgkkjkb37eiifhkkkbbbCChq,3qhbkbbbkbNCCCCCCACCi3;",
"-xu7rywrwrwugggghbghkkN77eiifhkkkbCbCGhq,q,ehkbkbbbNCCCCCCACCh3,",
",tteeqteeteasszkhlhhhlli5tihhhklhCNCCAh3=33,=,,qqtqttuuwwuw7w7<%",
";eteeeeeeetipkjgllhhhhhi,qeiihllhbbAAGh3=q77,,=o$=$=-,-,,ww7-,,-",
";eitteietetarcglhhihhiiehlhhihhlhCCCCGh,3bbbkft3xbkVVPVnbVVVVVb-",
"=eititietrispjskiiihhhiehlhhhhiitbCAGGk33bbbkff7NPVVPVVbbbVnnVn7",
"&eiiiiitiifhgrsshhhhiiiehblllmNCGbbPGGb=qbbbggu7NVVVnbkggbbbbbu<",
"&eiiiiiifahjcrkdhihhttietbmmNNNCAGhhGGk3wkgggbgtVVVnbbbbngbnbbbw",
"&ehiaahaaahhjskgiiihtii3immmmNCDGPPGtth=7xuuuggwVVnbbbggbggnbnbw",
"&eihaihhaihitgsahifhtii3tCCCCCCDGPPPGhi37bffuug7bVVbbbbgxxbbbbnu",
"=ehhhihhfitfhhfgfiiheii3ibCmNAkmkAPCf3333bftggg7uVnnnxggxxnnxnxu",
"oqhlhhihifhlkhftiihhihi,5NNmi:3,33et3==,,3,377<$wVxnxxgggxnxxnnw",
"&ehlhlhhhkhfhjjjhiiitiiq3el35tlh==$=$===$$$=,<-$wnxxxgggxxnxnnn7",
"o3hlhbllkhhhkkhuiiihieeqt315if3;tbAGGAk,,7fkgu7$unxxxggxxxxnVnn7",
"o=3=&$o$$o$$&=&&$&&&&=33ihi:=+8GCANbNAGb7gfftww$uVxxggxxxxxnVxn7",
" oo&,3qeeetteeflbCAHPGPPGi81$eHMNbbNNCGC7gtfgtq$unxxxggxxxnnnxx<",
" oohCACCNNAAVNNNmNblbhblbH3CqaZZNbbCCNAAtgftuw7$wnxxggxxnxnnnng<",
"o3=Cbbhlllblbmbbbllhllbbbbeh3hDZNNbNNNAA=tgffu7$7xxxgggxnnnnnVx<",
"o,ebllcczccccczczzlllvvmvzdd2yFSVVnnBZZS606zzyw%7xnxggxbnnnnnnx7",
"o,ellvccczczzzzzlldllvvmvddl3yZFnVNMMBZS>u008zu*7uxxVxnxxnnVnnx7",
"o&3hlvblzzvzzzzvldddlmMmvddd6sMBVVBMBVZZ6us66yu-7uuxxbxxxnnnnnx7",
" &5imcblvvvxvzzzllzzzmmmzdlp>;jZVNnMNZZZ>zy8s6u*nVnxbgxxxxxnnnx7",
"+&5immmbvvvvvzcczzdlvvvvCddsj>vZAVVAMMBB6ryygr7-xVnxxgxxxxxbnnx7",
"#&9eCmmbvvBBvvvczzzlvvBBZZv0a*ZZNNVVNVMc6u6yuur-xAVnxxxgxxkbnnx7",
"+&99mmmmMvBvBvvcvlmmmBBBCDDys*a23,<37uy6-rrywgw-xnVxbxbxkxkbbbk7",
"+&59CCmmBvvvBBvvmmmBBBBDZZZ0r@scnkkjgvvz-ruyuuu=gVVnxxgxxgkbbxg7",
"O#49BMvBvBvBZZCvBBDDZDJZCCDpp&lhhhlklmNG7ufuttu$uVbVbgxxggxnbVg<",
"##49BCBBZBBvvvZDDDZDJJDZCvppe&hjkhlbbmNA7tuwtfq=uVVnxxbkxkxxbnu<",
"O#49vBBvBBBZCZZBvDFFDJUJv948d*hhhahklbNV<7twfgw%wVnbxbnxggxxnVg7",
"O#99dBDDZSSZZJDdUUUULDJD849pi2flhkkkmNbb,=gftwg=uVbbbxxxxxbbnbg<",
"O&499jCDDFLLFJDlYUYYLYHd4pdll3hkhbklNbii,$<fggg$unnbxxxxxbbbxgV7",
"O#44469p099099p0LLLFZDC80zklm=lhhbllbeim7,$tkg7$unnxkbxbxbbnxxn7",
"##;;*;*::>0ddp449>*>>*>6>dpd,+3hhlkliqhA3t777<=$wbxuttqquguguuu,",
"#OOO.@#-**;::&&&>44>4>:;##:#o&#,3333,,3;$37o<7w=,7<<,-$==-==,w<,"
};
