/* XPM */
static char *ec1a01b5f4ef437bb0d258cd493c19cd4FrUao7pBl3ss9ZC[] = {
/* columns rows colors chars-per-pixel */
"64 64 170 2 ",
"   c gray20",
".  c gray21",
"X  c #373737",
"o  c gray22",
"O  c #3A3A3A",
"+  c gray23",
"@  c #3C3C3C",
"#  c #3E3E3E",
"$  c #3F3F3F",
"%  c gray25",
"&  c #414141",
"*  c gray26",
"=  c #434343",
"-  c #444444",
";  c gray27",
":  c #464646",
">  c gray28",
",  c #484848",
"<  c #494949",
"1  c gray29",
"2  c #4B4B4B",
"3  c #4C4C4C",
"4  c gray30",
"5  c #4E4E4E",
"6  c gray31",
"7  c #505050",
"8  c #515151",
"9  c gray32",
"0  c #535353",
"q  c gray33",
"w  c #555555",
"e  c #565656",
"r  c gray34",
"t  c #585858",
"y  c gray35",
"u  c #5A5A5A",
"i  c #5B5B5B",
"p  c gray36",
"a  c #5D5D5D",
"s  c gray37",
"d  c #5F5F5F",
"f  c #606060",
"g  c gray38",
"h  c #626262",
"j  c gray39",
"k  c #646464",
"l  c #656565",
"z  c gray40",
"x  c #676767",
"c  c #686868",
"v  c DimGray",
"b  c #6A6A6A",
"n  c gray42",
"m  c #6C6C6C",
"M  c #6D6D6D",
"N  c gray43",
"B  c #6F6F6F",
"V  c gray44",
"C  c #717171",
"Z  c #727272",
"A  c gray45",
"S  c #747474",
"D  c gray46",
"F  c #767676",
"G  c #777777",
"H  c gray47",
"J  c #797979",
"K  c gray48",
"L  c #7B7B7B",
"P  c #7C7C7C",
"I  c gray49",
"U  c #7E7E7E",
"Y  c gray50",
"T  c #808080",
"R  c #818181",
"E  c gray51",
"W  c #838383",
"Q  c #848484",
"!  c gray52",
"~  c #868686",
"^  c gray53",
"/  c #888888",
"(  c #898989",
")  c gray54",
"_  c #8B8B8B",
"`  c gray55",
"'  c #8D8D8D",
"]  c #8E8E8E",
"[  c gray56",
"{  c #909090",
"}  c gray57",
"|  c #929292",
" . c #939393",
".. c gray58",
"X. c #959595",
"o. c gray59",
"O. c #979797",
"+. c #989898",
"@. c gray60",
"#. c #9A9A9A",
"$. c #9B9B9B",
"%. c gray61",
"&. c #9D9D9D",
"*. c gray62",
"=. c #9F9F9F",
"-. c #A0A0A0",
";. c gray63",
":. c #A2A2A2",
">. c gray64",
",. c #A4A4A4",
"<. c #A5A5A5",
"1. c gray65",
"2. c #A7A7A7",
"3. c gray66",
"4. c #A9A9A9",
"5. c #AAAAAA",
"6. c gray67",
"7. c #ACACAC",
"8. c gray68",
"9. c #AEAEAE",
"0. c #AFAFAF",
"q. c gray69",
"w. c #B1B1B1",
"e. c #B2B2B2",
"r. c gray70",
"t. c #B4B4B4",
"y. c gray71",
"u. c #B6B6B6",
"i. c #B7B7B7",
"p. c gray72",
"a. c #B9B9B9",
"s. c gray73",
"d. c #BBBBBB",
"f. c #BCBCBC",
"g. c gray74",
"h. c gray",
"j. c gray75",
"k. c #C0C0C0",
"l. c #C1C1C1",
"z. c gray76",
"x. c #C3C3C3",
"c. c gray77",
"v. c #C5C5C5",
"b. c #C6C6C6",
"n. c gray78",
"m. c #C8C8C8",
"M. c gray79",
"N. c #CACACA",
"B. c #CBCBCB",
"V. c gray80",
"C. c #CDCDCD",
"Z. c #CECECE",
"A. c gray81",
"S. c #D0D0D0",
"D. c gray82",
"F. c #D2D2D2",
"G. c LightGray",
"H. c gray83",
"J. c #D5D5D5",
"K. c gray84",
"L. c #D7D7D7",
"P. c #D8D8D8",
"I. c gray85",
"U. c #DADADA",
"Y. c gray86",
"T. c gainsboro",
"R. c #DDDDDD",
"E. c gray87",
"W. c gray88",
"Q. c #E1E1E1",
/* pixels */
"; j j d j z j j z z M A A F P E J M j d y r 9 5 9 d y j c M ^ c 5 E J F M c c M c M c M M M A M d d d y d d y y d j M P J E  .9 ",
"y 1.g.g.g.l.p.l.M.c.c.c.l.l.l.l.c.l.g.p.e.1.-.=...-.-.9.p.p.p. .F l.H.H.H.D.V.M.V.D.D.D.D.D.D.D.V.V.M.l.l.l.g.g.l.c.M.H.H.T.M.A ",
"d e.l.u.p.g.p.g.g.p.g.g.g.p.g.l.g.l.l.l.g.p.g.g.p.u.9.9.e.u.e.E c g.D.V.M.D.D.D.D.V.V.D.D.H.D.D.H.H.H.D.H.H.H.H.V.H.H.H.H.P.l.d ",
"A e.u.e.u.u.e.u.e.e.e.e.e.e.9.e.9.e.e.e.e.e.u.u.u.u.9.e.e.e.e.E A p.V.V.V.V.V.V.V.V.V.V.V.V.V.V.V.M.V.V.M.V.V.V.V.D.V.V.V.c.9.d ",
"P e.p.p.p.u.u.u.p.p.u.u.e.9.9.9.9.e.9.e.9.9.6.9.6.9.e.u.u.u.e.F z u.V.D.H.D.D.V.M.V.V.V.V.V.V.V.D.V.V.D.V.V.V.V.V.M.c.M.D.M.1.5 ",
"E p.p.u.9.e.g.e.e.e.e.u.u.u.p.u.u.u.u.e.u.p.p.p.g.p.p.p.p.p.9.z z p.M.c.c.M.V.M.D.V.V.D.D.D.D.D.V.V.D.D.D.D.D.H.D.H.H.D.H.H.9.r ",
"J g.g.g.l.l.c.p.g.g.g.g.l.g.g.l.l.l.g.p.g.l.l.c.l.l.c.M.c.c.e.j J c.D.V.V.V.V.M.M.M.M.c.c.M.c.M.V.V.M.M.M.M.M.c.c.M.M.l.M.c.6.d ",
"A g.p.p.g.u.p.g.g.p.g.g.g.l.g.g.g.l.c.c.c.c.c.l.l.l.l.l.g.g.9.d ^ g.l.g.l.l.l.l.l.g.g.g.p.g.g.g.l.g.g.p.g.g.g.p.l.p.p.g.c.l.-.z ",
"z e.u.u.u.g.g.p.p.p.u.p.p.p.g.p.p.p.g.g.u.p.g.p.p.p.g.g.p.l.1.9 ) g.u.l.p.g.g.l.p.g.g.p.g.g.g.g.p.l.p.g.l.g.g.g.l.p.g.g.l.p.6.d ",
"d e.p.l.g.g.p.u.p.p.u.u.u.p.p.g.g.g.l.g.g.l.l.l.l.l.l.l.g.g.-.5 F u.e.u.u.u.e.u.p.u.u.p.u.u.p.p.p.g.u.e.u.p.p.9.u.p.p.u.u.p.-.9 ",
"d 9.e.e.9.6.9.e.e.9.9.9.9.9.e.9.e.u.e.u.p.p.p.p.p.u.u.u.u.p.+.5 j 6.6.9.e.e.9.9.9.9.e.9.9.9.9.9.6.9.6.9.9.9.9.6.9.1.1.6.6.9.+.r ",
"y 9.u.p.u.p.p.u.u.u.u.u.p.p.p.p.p.p.u.u.p.u.u.u.p.g.p.p.e.e...< y =.6.1.1.1.1.1.1.1.6.1.6.1.6.6.6.6.1.6.6.-.6.9.6.6.6.9.6.1. .y ",
"d u.c.c.l.c.c.l.g.l.l.l.l.l.l.g.p.u.u.e.u.u.g.g.p.g.p.g.g.c.+.& r +.6.1.1.6.1.1.1.1.6.1.1.1.1.1.1.1.-.6.-.1.6.1.-.1.6.-.=.9.[ 5 ",
"z l.V.M.l.l.l.l.g.g.g.p.p.g.p.p.u.u.p.g.p.l.g.u.p.c.l.g.l.l.1.r 9  .1.1.1.1.1.1.1.-.1.-.1.-.-.-.+.=.=.=.=.-...J d J ..-.-.=.F < ",
"M g.l.c.l.g.p.u.e.e.9.9.9.9.e.9.u.u.l.l.g.l.p.-.; A =.p.p.g.+.9 d ^ =.=.=.=.=.=.-.=.=.=.=.=.=.=.1.-.=...[ ) J y y r 9 z P ^ z r ",
"5 E M M c z d d d y y d j d j d j j c A M E J j ; ; < z  .9. .; ; d M A M A A M F A A A A F F F F z y y < ; ; + & < ; < ; 5 ; 9 ",
"9 y z M J ) ..+.) J c z y y < # + r y y y y y r r d j c M F ^  .) ^ P A c j j j j A A J E  .j r 9 9 < & # X + X X + # & ; < 5 5 ",
"g.l.M.V.D.D.D.V.D.D.V.V.g.u.^ # y 9.c.g.g.g.u.u.p.l.c.V.D.D.D.P.D.H.D.V.M.l.p.p.p.c.c.V.D.V.[ r j ..=......... .+.+.-.1.9.e.e.u.",
"D.P.P.T.P.P.P.P.P.P.P.P.H.H.e.9 d M.P.D.H.P.D.H.D.D.H.H.H.H.D.D.D.D.D.D.D.V.V.V.V.M.M.M.V.V.=.5 A D.P.D.P.H.H.H.H.H.P.P.P.H.H.H.",
"D.V.V.V.V.V.D.D.D.V.V.H.D.H.c.c A V.V.D.H.D.D.D.D.D.V.V.V.V.V.V.V.V.V.V.V.D.D.H.V.D.D.D.V.V.p.y J P.H.H.P.H.V.H.D.D.D.D.D.V.D.V.",
"c.M.c.M.M.c.M.M.M.M.c.M.c.l.p.z E D.V.H.D.V.D.D.D.D.D.H.D.D.D.D.H.D.D.H.D.D.D.D.D.D.D.H.D.D.l.j J V.c.M.M.M.c.V.M.c.M.M.M.M.M.M.",
"l.l.l.c.l.l.l.l.c.c.c.l.g.l.e.j ^ M.V.V.M.V.D.M.M.M.M.V.M.M.M.V.M.V.M.M.M.M.M.c.M.M.c.M.c.M.c.c A g.c.g.l.c.c.l.l.l.l.l.l.l.g.l.",
"l.g.g.p.p.p.p.p.p.l.g.l.l.l...9 ) g.l.p.g.l.l.g.l.l.l.g.g.g.g.l.l.g.l.g.g.l.l.l.l.l.l.c.c.c.p.z j 9.g.u.p.g.p.p.p.p.p.g.g.g.g.g.",
"u.u.p.p.p.p.p.p.p.p.9.u.u.9.^ 9 E u.p.u.g.u.e.g.u.u.u.p.g.p.p.u.p.p.p.p.p.p.p.u.u.g.u.p.e.u.u.F j 1.p.e.g.u.e.p.p.p.u.u.p.p.u.u.",
"e.e.u.e.e.e.u.e.e.e.9.e.e.9.F y F u.e.e.e.e.e.e.e.e.e.9.e.e.e.e.e.9.e.e.e.e.e.e.e.e.9.e.9.e.1.A d +.u.e.u.u.u.e.u.u.e.u.e.e.e.e.",
"e.6.9.e.9.9.e.6.e.e.u.9.e.e.E 9 M e.9.u.u.9.u.e.e.e.e.e.9.9.9.9.9.9.9.9.9.9.9.6.1.9.-.^ J P A j d ..e.9.9.e.9.e.e.e.e.e.9.e.9.9.",
"1.9.9.6.6.1.1.9.1.1.1.-.1.6. .r z +.6.-.1.6.-.6.1.6.6.1.1.6.6.6.6.6.6.9.9.9.9.9.e.6.6.^ d 9 9 d 9 [ 9.e.e.9.e.e.9.9.6.9.6.6.6.1.",
"=.-.-.1.6.1.1.-.1.1.9.9.6.1...d y =.1.9.6.6.e.-.6.1.6.6.6.6.6.6.6.9.6.6.6.6.6.6.6.9.9.6.1.[ j 9 5 ^ 1.1.6.-.-.-.1.1.1.-.-.-.1.-.",
"1.-.1.-.+.=.6.-.-.=.=.-.=.=. .y 9 r r 9 A =.1.6.1.1.6.6.1.1.6.1.1.6.6.6.6.6.6.6.e.1.1.6.1.9.+.d 9 ) -.-.-.1.1.1.-.-.-.-.-.-.1.-.",
"+.1.+. .1.-...-.=.=.=.+.+.=.^ 9 j d d F +.1.6.-.1.-.-.-.1.-.-.-.-.1.-.-.-.1.1.-.+.1.1.1.1.-.) r d  .1.-.-.1.-.-.-.-.-.-.-.-.-.-.",
"-.) y r E .. .-.+.=.-.=.=...A 9 5 y ) =.1.-.=.1.-.-.-.=.=.=.=.=.+.-.=.=.=.-.-.-.6.+.=.6.=. .P r c  .=.+.=.+.+.=.-.=.-.=.=.=.=.=.",
" .d 5 y 5 y J F A c c z d d 5 r 9 5 d y j z c M M c c j d y r r y j z A J )  ...P A z y y y 9 9 ; j z z F P ) +.+.=.+.=.+.+.=.+.",
"& y r < 5 5 < 9 r r y r y r d =.+.) F c d y 9 5 < < r r y j j 5 ; c F ^ E P J E P F c j y 9 ; & ; < r d z A P [ ) E F M z d d 5 ",
"^ e.u.e.e.6.-.=...P y j r y 9.T.H.D.D.M.l.u.1.=.1.9.9.e.p.p...; 5 9.P.P.D.H.T.P.T.P.V.c.u.9.1.=. .=.9.l.D.H.T.T.H.P.P.D.H.D.c...",
"^ V.D.D.D.D.D.V.H.V.V.+.F 9.D.M.P.H.H.H.D.H.H.H.D.H.D.D.P.H.+.+ ; 6.H.H.D.D.D.D.D.H.D.D.D.D.D.V.D.D.M.V.M.V.M.M.M.D.D.D.H.H.V.^ ",
"E D.V.M.M.V.D.D.V.V.H.D.c.V.D.H.V.V.D.V.D.D.H.H.H.D.D.D.D.V.[ 9 z e.c.V.D.D.V.D.D.H.H.D.D.V.V.V.V.D.V.V.D.D.D.D.V.D.M.H.V.M.D.) ",
"P M.c.c.c.M.c.c.c.D.c.V.D.c.V.M.M.M.V.V.M.M.c.l.M.M.M.V.M.M.J d j e.M.c.M.V.V.V.M.M.M.M.c.M.M.V.M.M.M.M.M.M.M.c.V.M.M.H.V.M.c.E ",
"A g.c.M.M.V.V.M.V.l.V.V.c.V.c.M.M.M.c.c.c.M.M.V.M.V.V.V.M.V.F d z u.D.V.c.M.M.V.V.V.V.M.M.M.M.M.M.M.M.c.c.M.V.V.M.c.M.M.M.V.l.M ",
"j 6.c.l.l.l.c.l.c.l.c.c.g.c.V.c.c.c.c.M.c.c.c.l.c.c.l.c.l.c.) j M 6.g.c.c.l.l.c.l.l.l.l.c.c.c.c.l.l.c.c.c.c.M.c.c.c.M.l.c.V.p.c ",
"; =.c.l.g.l.l.g.l.g.g.l.c.g.p.l.l.l.l.g.g.p.g.g.g.g.g.l.g.p.+.c A 9.l.c.l.c.l.g.l.l.l.c.c.c.c.l.c.l.l.l.l.g.l.g.g.g.c.l.l.l.1.d ",
"r ^ e.p.u.u.g.u.p.u.p.u.u.p.p.p.p.p.p.p.g.p.p.p.u.p.p.p.u.p.=.c A e.g.g.p.g.g.p.p.p.g.g.p.g.g.p.g.p.p.p.p.p.p.p.g.u.u.u.g.p.1.d ",
"c ) e.u.9.e.u.u.u.e.u.e.e.e.9.e.e.9.9.9.9.9.e.u.9.9.-.P c A A c M 6.e.e.e.e.u.e.e.e.e.9.6.9.9.9.e.9.9.6.9.9.9.6.1.6.9.6.6.6...M ",
"A E 6.6.6.6.6.6.6.6.6.1.1.6.6.1.9.9.9.9.6.6.6.6.9.6.6.1. .J d d J 9.e.9.9.9.9.9.e.9.9.9.e.e.9.6.9.9.9.9.e.9.6.6.9.9.9.6.6.9.[ F ",
"d F -.-.-.1.-.-.1.1.-.1.-.1.1.1.-.-.1.1.1.1.1.1.1.1.6.-.1.6.[ c J 1.1.6.6.6.9.9.6.6.6.6.1.6.1.1.6.6.6.6.6.6.6.6.1.1.6.6.1.6.M r ",
"< J 1.1.1.1.1.1.1.1.1.1.1.-.-.1.1.6.1.1.-.1.1.6.1.6.6.-.1.1.+.r P 6.-.-.1.1.-.-.-.-.-.-.=.-.6.6.-.1.-.1.1.1.1.1.6.9.9.6.1.6.c 9 ",
"< E 1.-.-.-.-.-.1.-.-.-.-.1.-.-.-.-.-.-.-.-.=.=.-.=.=.-.-.=.-.z M =.=.=.-.-.=.=.=.-.-.-.-.-.-.-.-.1.1.-.1.-.-.1.1.-.-.-.-.-.y & ",
"9  .=.=.=.-.=.=.=.+.=.=.-.-.=.=.=.=.-.-.=.=.+.+.+.=.-.=.=.+.+.d c -.1.-.=.=.=.=.+.+.=.-.-.-.-.=.=.=.=.=.=.=.+.=.=.+.=.=.-.+.d & ",
"j -...=.=.-.+.=.=.=.=.=.-.=.=.=.-.+.) J A M M M A c M z A M A 9 j +.+.) F c d y y d d c E  .-.-.=.=.=.=.=.=.+...^ J M z y y < 9 ",
"[  . .[  .......+...=. .+.+.j d 5 j z E ) ) +.+.=.-.) J z 9 j F M c j z c M A M A M A A A J E y 9 d & 5 & ; r r j M F J E )  .+.",
"D.D.D.D.D.H.H.H.D.H.P.D.P.P...z J V.P.D.H.V.D.D.D.D.Q.c.z z p.H.D.V.M.c.c.l.l.g.c.M.D.P.T.P.u.z ^ M.9.E j z A M u.l.D.H.H.H.D.V.",
"D.D.V.D.V.D.D.D.D.D.H.V.H.D.-.5 r g.P.D.T.H.D.D.D.H.V.V.c.g.V.D.H.H.H.D.D.D.H.H.P.H.D.V.D.D.e.j ^ D.H.T.P.e...=.V.H.H.D.D.D.V.H.",
"D.D.D.D.D.D.D.D.D.D.V.D.V.D.p.y < =.M.D.D.V.H.D.V.H.V.V.D.V.D.H.V.V.D.V.V.V.V.D.M.D.D.V.D.D.9.r M H.H.M.D.H.V.H.D.H.H.H.D.D.D.D.",
"c.M.M.M.M.c.M.M.M.M.V.V.M.M.g.j & +.D.H.V.V.P.M.V.M.V.H.M.M.V.c.V.V.M.M.M.c.c.c.c.M.c.l.M.c.-.& d l.M.c.c.M.c.V.l.c.c.c.M.c.c.c.",
"c.l.l.c.c.M.c.M.l.c.c.c.l.c.e.y ; =.M.M.c.M.M.c.M.c.c.c.c.M.V.M.M.c.M.M.V.V.V.M.c.M.M.c.M.c.=.; j g.c.l.l.M.c.g.c.M.l.g.l.l.l.M.",
"g.g.g.l.l.l.g.l.c.c.l.g.g.l.=.j c 6.l.g.c.l.u.l.l.p.g.g.p.g.g.u.g.g.g.g.l.g.g.g.g.l.c.l.g.g.-.y M g.l.c.g.p.g.l.g.l.g.l.l.g.g.g.",
"p.p.g.p.p.g.p.p.p.u.p.p.p.e.E j c -.g.p.g.g.u.p.u.g.g.u.g.g.p.l.g.g.g.l.g.g.g.l.g.g.g.g.l.p.6.j z p.p.p.g.g.p.p.p.p.p.u.p.p.p.p.",
"e.e.u.e.e.e.9.6.6.e.6.9.e.e.c r d -.p.p.p.u.u.u.p.u.p.p.p.u.p.p.g.p.u.u.p.p.p.g.u.p.p.u.e.u.=.j c u.p.e.p.u.e.p.u.u.u.u.u.e.e.e.",
"9.9.e.e.e.e.e.e.e.u.e.e.9.e.c r y =.e.u.u.p.p.u.u.u.u.e.e.e.e.e.9.u.u.e.e.e.e.e.u.e.e.u.e.9...r c e.u.6.u.e.e.e.9.e.9.e.e.e.e.e.",
"-.1.6.1.6.6.9.9.1.6.1.6.6.6.j < r +.9.e.e.e.9.9.e.9.e.9.e.9.9.9.9.9.6.6.6.9.e.e.9.6.6.9.1.6.[ 5 A 6.6.1.6.6.6.6.6.1.1.1.1.6.1.-.",
"-.-.-.-.-.-.-.-.-.6.1.1.1.1.r & <  .1.6.1.6.6.1.1.6.1.1.1.6.6.1.6.1.1.6.6.1.1.-.1.-.1.1.=.-.[ 5 A -.1.1.-.-.1.-.=.=.=.=.=.-.-.-.",
"1.6.1.1.1.1.1.1.1.1.1.1.6.1.y ; 5  .-.-.=.-.-.1.-.1.-.1.-.-.-.-.=.1.-.1.=.-.6.=.+.=.-.-.-.1.[ < A -.-.1.-.-.1.=.1.1.1.6.1.1.1.1.",
"-.-.=.=.=.=.=.=.+.=.=.-.-.=.9 & ; ) =.-.-.1.-.-.-.-.-.-.1.1.1.1.=.1.1.=.=.1.-.E 5 y A [ -.1.[ 9 M =.=.-.-.-.-.=.=.-.-.1.-.-.=.=.",
"[ [ ) ) ) ) ) ) ..+.+.=.+.+.r < < ^ +.=.-.-.+.+.[  .......+.+.=.+.-.+.=.+...^ 9 5 ; & ; r z M d z +.=.=.-.=.=.=.=.+.+.+.+.+.+...",
"y y r 9 9 5 5 5 9 y y j z F ; < & A A c j d r r r r r r y y d d z z r d 9 < 5 # & ; < 9 9 9 r y j =.=...+.+.+.+.+. .P A M z j y "
};
